<svg width="300" height="70" viewBox="0 0 300 70" fill="none" xmlns="http://www.w3.org/2000/svg">
<rect width="300" height="70" fill="white"/>
<g clip-path="url(#clip0_375_171522)">
<path d="M81.4049 39.9445C81.7245 40.2674 81.9641 40.5096 82.1638 40.7518C83.7216 42.4874 85.6388 43.335 87.9554 43.0928C88.6743 43.0121 89.3933 42.6892 89.9924 42.2856C91.1507 41.3976 91.1907 39.7023 89.9924 38.8143C88.9539 38.0474 87.6758 37.6034 86.4775 36.9576C85.2394 36.3118 83.9612 35.7871 82.8029 34.9798C79.1283 32.4369 79.4877 26.8264 83.442 24.6468C86.877 22.7497 91.5102 23.3552 94.4259 26.0192C94.9452 26.5035 94.9851 26.8668 94.5058 27.4319C94.0265 27.9566 93.6271 28.5217 93.1877 29.0868C92.8682 29.5308 92.5886 29.5711 92.1493 29.2079C90.7114 27.997 89.0338 27.3915 87.1166 27.553C85.5988 27.7144 84.5204 28.9253 84.8 30.2977C84.9997 31.2664 85.7187 31.8315 86.5574 32.2755C88.3548 33.1231 90.1522 33.9304 91.9096 34.8184C93.6271 35.666 94.8653 36.9576 95.3047 38.9354C95.8638 41.7205 94.5857 44.6266 92.0694 45.9586C88.0353 48.0979 82.5233 47.2502 79.6076 43.6579C78.8886 42.8103 78.8886 42.8103 79.6076 42.003C80.2067 41.3169 80.7659 40.671 81.4049 39.9445Z" fill="#D42F2D"/>
<path d="M158.292 33.2846C155.496 33.2846 153.419 35.4238 153.38 38.33C153.38 41.1958 155.536 43.4561 158.292 43.4561C161.088 43.4561 163.205 41.2361 163.165 38.33C163.165 35.4238 161.128 33.2846 158.292 33.2846ZM163.045 44.9496C162.247 45.4743 161.608 45.999 160.849 46.4026C157.853 47.9364 153.699 47.0081 151.582 44.3845C149.066 41.2765 148.706 36.8769 150.743 33.446C153.1 29.4097 159.171 28.1988 162.566 31.5489C162.686 31.67 162.806 31.7508 163.085 31.9122C163.125 31.3875 163.165 31.0242 163.125 30.6206C163.125 30.217 163.325 30.0151 163.724 30.0151C164.643 30.0151 165.522 30.0151 166.44 30.0151C167.04 30.0151 167 30.4188 167 30.8628C167 34.778 167 38.6932 167 42.5681C167 43.7387 167 44.8688 167 46.0394C167 46.5641 166.84 46.7659 166.321 46.7659C165.482 46.7255 164.643 46.7255 163.804 46.7659C163.245 46.7659 163.085 46.5237 163.085 45.999C163.125 45.6357 163.045 45.3128 163.045 44.9496Z" fill="#D42F2D"/>
<path d="M116.154 49.8335C117.033 49.995 117.712 50.1968 118.391 50.1968C119.429 50.1968 120.228 49.6317 120.787 48.7841C121.186 48.1786 121.506 47.5328 121.786 46.8466C121.865 46.6852 121.826 46.3623 121.746 46.2008C119.789 41.7609 117.831 37.3209 115.914 32.8809C115.515 31.9929 115.155 31.1049 114.756 30.1362C114.996 30.0959 115.195 29.9748 115.435 29.9748C116.513 29.9748 117.632 29.9748 118.71 29.9748C119.11 29.9748 119.389 30.0959 119.549 30.5399C120.587 33.1635 121.626 35.7467 122.664 38.3703C122.944 39.0565 123.184 39.7427 123.463 40.3885C123.543 40.55 123.703 40.7114 123.942 40.9939C124.382 39.7023 124.821 38.5318 125.221 37.4016C126.019 35.1413 126.818 32.8406 127.617 30.5802C127.777 30.1362 128.016 30.0151 128.456 30.0151C129.494 30.0151 130.493 30.0151 131.531 30.0151C132.051 30.0151 132.13 30.217 131.931 30.7013C130.253 35.0606 128.656 39.4198 126.978 43.779C126.099 46.0394 125.221 48.2593 124.142 50.439C123.144 52.4975 121.386 53.7891 119.07 53.8698C118.071 53.9102 117.033 53.5469 116.034 53.3451C115.874 53.3047 115.595 53.0222 115.635 52.8608C115.754 51.8113 115.954 50.8022 116.154 49.8335Z" fill="#D42F2D"/>
<path d="M106.848 47.1695C103.054 46.9273 100.178 45.5954 98.66 42.1645C96.7028 37.8053 98.2606 31.9929 103.293 30.217C107.048 28.885 111.361 29.6519 113.758 32.9213C113.798 33.002 113.878 33.0424 113.918 33.1231C114.517 34.0515 114.517 34.2129 113.558 34.6973C112.999 34.9798 112.4 35.222 111.881 35.5853C111.401 35.9082 111.082 35.7871 110.802 35.3431C109.684 33.8093 108.206 33.1635 106.329 33.3249C103.253 33.5671 101.376 36.4733 101.935 39.2583C102.335 41.3169 103.453 42.6892 105.53 43.2139C107.607 43.7387 109.324 43.0525 110.682 41.559C111.202 40.9536 111.561 40.8729 112.16 41.3169C112.719 41.7205 113.359 42.0434 113.958 42.4067C114.357 42.6085 114.437 42.8507 114.157 43.2543C112.999 45.0706 111.322 46.2008 109.284 46.7659C108.406 46.9677 107.487 47.0484 106.848 47.1695Z" fill="#D42F2D"/>
<path d="M138.481 34.9798C138.481 38.6125 138.481 42.2048 138.481 45.8375C138.481 46.5237 138.282 46.7659 137.603 46.7255C136.804 46.6852 135.965 46.6852 135.166 46.7255C134.647 46.7255 134.447 46.5641 134.447 46.0393C134.447 38.6932 134.447 31.3471 134.447 24.0414C134.447 23.4359 134.687 23.1937 135.286 23.2341C136.045 23.2745 136.804 23.2745 137.603 23.2341C138.282 23.1937 138.481 23.4359 138.481 24.1221C138.441 27.7548 138.481 31.3875 138.481 34.9798Z" fill="#D42F2D"/>
<path d="M142.396 34.9798C142.396 31.3875 142.396 27.8355 142.396 24.2432C142.396 23.2341 142.396 23.2341 143.395 23.2341C143.994 23.2341 144.553 23.2341 145.152 23.2341C146.391 23.2341 146.391 23.2341 146.391 24.445C146.391 28.2391 146.391 32.0737 146.391 35.8678C146.391 39.1776 146.391 42.4874 146.391 45.7972C146.391 46.4833 146.191 46.7255 145.512 46.6852C144.713 46.6448 143.914 46.6448 143.155 46.6852C142.516 46.7255 142.356 46.4833 142.356 45.8779C142.396 42.2856 142.396 38.6529 142.396 34.9798Z" fill="#D42F2D"/>
<path d="M58.7576 38.9354C58.2383 35.5853 57.12 32.2755 55.3625 29.3693C53.6051 26.5035 51.3284 23.9606 48.9719 21.9828C48.5725 22.2654 48.0932 22.4672 47.5739 22.5076C46.8949 22.5479 46.2159 22.3057 45.7366 21.9021C43.1404 23.9606 40.9036 26.665 39.1063 29.9748C37.6684 32.6387 36.7098 35.4238 36.2305 38.1685C37.0293 38.4914 37.6284 39.2583 37.7083 40.227C37.7083 40.3885 37.7083 40.5903 37.6684 40.7518C41.4229 42.9717 46.2159 44.4652 51.2885 44.1423C53.0459 44.0212 54.7634 43.7386 56.3611 43.2946C56.3211 43.0928 56.2812 42.8507 56.2413 42.6488C56.1614 40.8729 57.2398 39.4198 58.7576 38.9354Z" fill="#525757"/>
<path d="M49.9713 19.2381C50.0112 19.3592 50.0112 19.5207 50.0512 19.6821C50.0911 20.1261 50.0112 20.5298 49.8115 20.9334C52.2879 22.9919 54.6045 25.6559 56.4818 28.6831C58.1593 31.3875 59.3975 34.9798 60.0366 38.8143C61.1949 38.8951 62.1934 39.5005 62.7926 40.4289C65.948 38.4107 68.3045 35.7064 69.383 32.6387H69.4229C68.664 26.0595 64.7098 20.449 59.1978 17.4218C55.9625 17.2603 52.8471 17.9062 49.9713 19.2381Z" fill="#525757"/>
<path d="M45.4971 17.9869C45.9365 17.5025 46.5356 17.22 47.2545 17.1796C48.0933 17.1393 48.8522 17.4622 49.3714 18.0272C51.5682 16.9778 53.9248 16.3724 56.3612 16.1302C54.2843 15.4036 52.0475 15 49.7709 15C46.9749 15 44.3388 15.6054 41.9023 16.6549C43.0607 16.8971 44.2988 17.3411 45.4971 17.9869Z" fill="#525757"/>
<path d="M34.2741 38.2492C34.4738 38.1282 34.6735 38.0474 34.9131 38.0071C35.4324 35.1009 36.4309 32.1544 37.9487 29.2886C39.8259 25.777 42.2224 22.9112 44.9385 20.7316C44.8586 20.4894 44.7787 20.2472 44.7787 19.9647C44.7787 19.6821 44.7787 19.3996 44.8586 19.1574C43.0213 18.2291 41.2638 17.7043 39.7461 17.7447C34.5137 20.893 30.7991 26.3824 30.1201 32.7598C30.7592 34.5358 32.1971 36.4733 34.2741 38.2492Z" fill="#525757"/>
<path d="M59.0372 45.8375C58.1984 45.6357 57.4395 45.1514 56.9602 44.4652C55.1628 44.9899 53.2856 45.3128 51.3684 45.4339C50.8891 45.4743 50.4098 45.4743 49.9704 45.4743C45.2972 45.4743 40.7838 44.0616 37.0692 41.9223C36.7497 42.2452 36.3104 42.5278 35.8311 42.6085C35.871 45.8375 36.6299 48.7841 38.1477 51.1655C41.4229 53.5469 45.4171 54.9596 49.7707 54.9596C52.3669 54.9596 54.8832 54.4349 57.1599 53.5066C58.1585 51.4884 58.8375 48.7841 59.0372 45.8375Z" fill="#525757"/>
<path d="M30 35.5449C30.1598 40.7518 32.2367 45.4339 35.5918 48.9455C34.8729 46.9677 34.5134 44.7881 34.5134 42.4874C33.7146 42.1645 33.1155 41.3976 33.0755 40.4692C33.0356 40.0252 33.1155 39.6216 33.3152 39.2583C31.9571 38.0878 30.8388 36.8365 30 35.5449Z" fill="#525757"/>
<path d="M63.2718 41.6801C63.3118 41.8416 63.3118 41.9627 63.3118 42.1241C63.4316 43.9808 62.1534 45.555 60.396 45.8779C60.2362 48.2997 59.7969 50.6004 58.998 52.6589C65.1491 49.3492 69.3829 42.891 69.5427 35.4238C68.1048 37.886 65.9479 40.0252 63.2718 41.6801Z" fill="#525757"/>
<path d="M58.7576 38.9354C58.2383 35.5853 57.12 32.2755 55.3625 29.3693C53.6051 26.5035 51.3284 23.9606 48.9719 21.9828C48.5725 22.2654 48.0932 22.4672 47.5739 22.5076C46.8949 22.5479 46.2159 22.3057 45.7366 21.9021C43.1404 23.9606 40.9036 26.665 39.1063 29.9748C37.6684 32.6387 36.7098 35.4238 36.2305 38.1685C37.0293 38.4914 37.6284 39.2583 37.7083 40.227C37.7083 40.3885 37.7083 40.5903 37.6684 40.7518C41.4229 42.9717 46.2159 44.4652 51.2885 44.1423C53.0459 44.0212 54.7634 43.7386 56.3611 43.2946C56.3211 43.0928 56.2812 42.8507 56.2413 42.6488C56.1614 40.8729 57.2398 39.4198 58.7576 38.9354Z" fill="#00A9E5"/>
<path d="M49.9713 19.2381C50.0112 19.3592 50.0112 19.5207 50.0512 19.6821C50.0911 20.1261 50.0112 20.5298 49.8115 20.9334C52.2879 22.9919 54.6045 25.6559 56.4818 28.6831C58.1593 31.3875 59.3975 34.9798 60.0366 38.8143C61.1949 38.8951 62.1934 39.5005 62.7926 40.4289C65.948 38.4107 68.3045 35.7064 69.383 32.6387H69.4229C68.664 26.0595 64.7098 20.449 59.1978 17.4218C55.9625 17.2603 52.8471 17.9062 49.9713 19.2381Z" fill="#00A9E5"/>
<path d="M45.4971 17.9869C45.9365 17.5025 46.5356 17.22 47.2545 17.1796C48.0933 17.1393 48.8522 17.4622 49.3714 18.0272C51.5682 16.9778 53.9248 16.3724 56.3612 16.1302C54.2843 15.4036 52.0475 15 49.7709 15C46.9749 15 44.3388 15.6054 41.9023 16.6549C43.0607 16.8971 44.2988 17.3411 45.4971 17.9869Z" fill="#0091D2"/>
<path d="M34.2741 38.2492C34.4738 38.1282 34.6735 38.0474 34.9131 38.0071C35.4324 35.1009 36.4309 32.1544 37.9487 29.2886C39.8259 25.777 42.2224 22.9112 44.9385 20.7316C44.8586 20.4894 44.7787 20.2472 44.7787 19.9647C44.7787 19.6821 44.7787 19.3996 44.8586 19.1574C43.0213 18.2291 41.2638 17.7043 39.7461 17.7447C34.5137 20.893 30.7991 26.3824 30.1201 32.7598C30.7592 34.5358 32.1971 36.4733 34.2741 38.2492Z" fill="#0091D2"/>
<path d="M59.0372 45.8375C58.1984 45.6357 57.4395 45.1514 56.9602 44.4652C55.1628 44.9899 53.2856 45.3128 51.3684 45.4339C50.8891 45.4743 50.4098 45.4743 49.9704 45.4743C45.2972 45.4743 40.7838 44.0616 37.0692 41.9223C36.7497 42.2452 36.3104 42.5278 35.8311 42.6085C35.871 45.8375 36.6299 48.7841 38.1477 51.1655C41.4229 53.5469 45.4171 54.9596 49.7707 54.9596C52.3669 54.9596 54.8832 54.4349 57.1599 53.5066C58.1585 51.4884 58.8375 48.7841 59.0372 45.8375Z" fill="#00A9E5"/>
<path d="M30 35.5449C30.1598 40.7518 32.2367 45.4339 35.5918 48.9455C34.8729 46.9677 34.5134 44.7881 34.5134 42.4874C33.7146 42.1645 33.1155 41.3976 33.0755 40.4692C33.0356 40.0252 33.1155 39.6216 33.3152 39.2583C31.9571 38.0878 30.8388 36.8365 30 35.5449Z" fill="#0091D2"/>
<path d="M63.2718 41.6801C63.3118 41.8416 63.3118 41.9627 63.3118 42.1241C63.4316 43.9808 62.1534 45.555 60.396 45.8779C60.2362 48.2997 59.7969 50.6004 58.998 52.6589C65.1491 49.3492 69.3829 42.891 69.5427 35.4238C68.1048 37.886 65.9479 40.0252 63.2718 41.6801Z" fill="#00A9E5"/>
</g>
<g clip-path="url(#clip1_375_171522)">
<path d="M81.4049 39.9445C81.7245 40.2674 81.9641 40.5096 82.1638 40.7518C83.7216 42.4874 85.6388 43.335 87.9554 43.0928C88.6743 43.0121 89.3933 42.6892 89.9924 42.2856C91.1507 41.3976 91.1907 39.7023 89.9924 38.8143C88.9539 38.0474 87.6758 37.6034 86.4775 36.9576C85.2394 36.3118 83.9612 35.7871 82.8029 34.9798C79.1283 32.4369 79.4877 26.8264 83.442 24.6468C86.877 22.7497 91.5102 23.3552 94.4259 26.0192C94.9452 26.5035 94.9851 26.8668 94.5058 27.4319C94.0265 27.9566 93.6271 28.5217 93.1877 29.0868C92.8682 29.5308 92.5886 29.5711 92.1493 29.2079C90.7114 27.997 89.0338 27.3915 87.1166 27.553C85.5988 27.7144 84.5204 28.9253 84.8 30.2977C84.9997 31.2664 85.7187 31.8315 86.5574 32.2755C88.3548 33.1231 90.1522 33.9304 91.9096 34.8184C93.6271 35.666 94.8653 36.9576 95.3047 38.9354C95.8638 41.7205 94.5857 44.6266 92.0694 45.9586C88.0353 48.0979 82.5233 47.2502 79.6076 43.6579C78.8886 42.8103 78.8886 42.8103 79.6076 42.003C80.2067 41.3169 80.7659 40.671 81.4049 39.9445Z" fill="#D42F2D"/>
<path d="M158.292 33.2846C155.496 33.2846 153.419 35.4238 153.38 38.33C153.38 41.1958 155.536 43.4561 158.292 43.4561C161.088 43.4561 163.205 41.2361 163.165 38.33C163.165 35.4238 161.128 33.2846 158.292 33.2846ZM163.045 44.9496C162.247 45.4743 161.608 45.999 160.849 46.4026C157.853 47.9364 153.699 47.0081 151.582 44.3845C149.066 41.2765 148.706 36.8769 150.743 33.446C153.1 29.4097 159.171 28.1988 162.566 31.5489C162.686 31.67 162.806 31.7508 163.085 31.9122C163.125 31.3875 163.165 31.0242 163.125 30.6206C163.125 30.217 163.325 30.0151 163.724 30.0151C164.643 30.0151 165.522 30.0151 166.44 30.0151C167.04 30.0151 167 30.4188 167 30.8628C167 34.778 167 38.6932 167 42.5681C167 43.7387 167 44.8688 167 46.0394C167 46.5641 166.84 46.7659 166.321 46.7659C165.482 46.7255 164.643 46.7255 163.804 46.7659C163.245 46.7659 163.085 46.5237 163.085 45.999C163.125 45.6357 163.045 45.3128 163.045 44.9496Z" fill="#D42F2D"/>
<path d="M116.154 49.8335C117.033 49.995 117.712 50.1968 118.391 50.1968C119.429 50.1968 120.228 49.6317 120.787 48.7841C121.186 48.1786 121.506 47.5328 121.786 46.8466C121.865 46.6852 121.826 46.3623 121.746 46.2008C119.789 41.7609 117.831 37.3209 115.914 32.8809C115.515 31.9929 115.155 31.1049 114.756 30.1362C114.996 30.0959 115.195 29.9748 115.435 29.9748C116.513 29.9748 117.632 29.9748 118.71 29.9748C119.11 29.9748 119.389 30.0959 119.549 30.5399C120.587 33.1635 121.626 35.7467 122.664 38.3703C122.944 39.0565 123.184 39.7427 123.463 40.3885C123.543 40.55 123.703 40.7114 123.942 40.9939C124.382 39.7023 124.821 38.5318 125.221 37.4016C126.019 35.1413 126.818 32.8406 127.617 30.5802C127.777 30.1362 128.016 30.0151 128.456 30.0151C129.494 30.0151 130.493 30.0151 131.531 30.0151C132.051 30.0151 132.13 30.217 131.931 30.7013C130.253 35.0606 128.656 39.4198 126.978 43.779C126.099 46.0394 125.221 48.2593 124.142 50.439C123.144 52.4975 121.386 53.7891 119.07 53.8698C118.071 53.9102 117.033 53.5469 116.034 53.3451C115.874 53.3047 115.595 53.0222 115.635 52.8608C115.754 51.8113 115.954 50.8022 116.154 49.8335Z" fill="#D42F2D"/>
<path d="M106.848 47.1695C103.054 46.9273 100.178 45.5954 98.66 42.1645C96.7028 37.8053 98.2606 31.9929 103.293 30.217C107.048 28.885 111.361 29.6519 113.758 32.9213C113.798 33.002 113.878 33.0424 113.918 33.1231C114.517 34.0515 114.517 34.2129 113.558 34.6973C112.999 34.9798 112.4 35.222 111.881 35.5853C111.401 35.9082 111.082 35.7871 110.802 35.3431C109.684 33.8093 108.206 33.1635 106.329 33.3249C103.253 33.5671 101.376 36.4733 101.935 39.2583C102.335 41.3169 103.453 42.6892 105.53 43.2139C107.607 43.7387 109.324 43.0525 110.682 41.559C111.202 40.9536 111.561 40.8729 112.16 41.3169C112.719 41.7205 113.359 42.0434 113.958 42.4067C114.357 42.6085 114.437 42.8507 114.157 43.2543C112.999 45.0706 111.322 46.2008 109.284 46.7659C108.406 46.9677 107.487 47.0484 106.848 47.1695Z" fill="#D42F2D"/>
<path d="M138.481 34.9798C138.481 38.6125 138.481 42.2048 138.481 45.8375C138.481 46.5237 138.282 46.7659 137.603 46.7255C136.804 46.6852 135.965 46.6852 135.166 46.7255C134.647 46.7255 134.447 46.5641 134.447 46.0393C134.447 38.6932 134.447 31.3471 134.447 24.0414C134.447 23.4359 134.687 23.1937 135.286 23.2341C136.045 23.2745 136.804 23.2745 137.603 23.2341C138.282 23.1937 138.481 23.4359 138.481 24.1221C138.441 27.7548 138.481 31.3875 138.481 34.9798Z" fill="#D42F2D"/>
<path d="M142.396 34.9798C142.396 31.3875 142.396 27.8355 142.396 24.2432C142.396 23.2341 142.396 23.2341 143.395 23.2341C143.994 23.2341 144.553 23.2341 145.152 23.2341C146.391 23.2341 146.391 23.2341 146.391 24.445C146.391 28.2391 146.391 32.0737 146.391 35.8678C146.391 39.1776 146.391 42.4874 146.391 45.7972C146.391 46.4833 146.191 46.7255 145.512 46.6852C144.713 46.6448 143.914 46.6448 143.155 46.6852C142.516 46.7255 142.356 46.4833 142.356 45.8779C142.396 42.2856 142.396 38.6529 142.396 34.9798Z" fill="#D42F2D"/>
<path d="M58.7576 38.9354C58.2383 35.5853 57.12 32.2755 55.3625 29.3693C53.6051 26.5035 51.3284 23.9606 48.9719 21.9828C48.5725 22.2654 48.0932 22.4672 47.5739 22.5076C46.8949 22.5479 46.2159 22.3057 45.7366 21.9021C43.1404 23.9606 40.9036 26.665 39.1063 29.9748C37.6684 32.6387 36.7098 35.4238 36.2305 38.1685C37.0293 38.4914 37.6284 39.2583 37.7083 40.227C37.7083 40.3885 37.7083 40.5903 37.6684 40.7518C41.4229 42.9717 46.2159 44.4652 51.2885 44.1423C53.0459 44.0212 54.7634 43.7386 56.3611 43.2946C56.3211 43.0928 56.2812 42.8507 56.2413 42.6488C56.1614 40.8729 57.2398 39.4198 58.7576 38.9354Z" fill="#525757"/>
<path d="M49.9713 19.2381C50.0112 19.3592 50.0112 19.5207 50.0512 19.6821C50.0911 20.1261 50.0112 20.5298 49.8115 20.9334C52.2879 22.9919 54.6045 25.6559 56.4818 28.6831C58.1593 31.3875 59.3975 34.9798 60.0366 38.8143C61.1949 38.8951 62.1934 39.5005 62.7926 40.4289C65.948 38.4107 68.3045 35.7064 69.383 32.6387H69.4229C68.664 26.0595 64.7098 20.449 59.1978 17.4218C55.9625 17.2603 52.8471 17.9062 49.9713 19.2381Z" fill="#525757"/>
<path d="M45.4971 17.9869C45.9365 17.5025 46.5356 17.22 47.2545 17.1796C48.0933 17.1393 48.8522 17.4622 49.3714 18.0272C51.5682 16.9778 53.9248 16.3724 56.3612 16.1302C54.2843 15.4036 52.0475 15 49.7709 15C46.9749 15 44.3388 15.6054 41.9023 16.6549C43.0607 16.8971 44.2988 17.3411 45.4971 17.9869Z" fill="#525757"/>
<path d="M34.2741 38.2492C34.4738 38.1282 34.6735 38.0474 34.9131 38.0071C35.4324 35.1009 36.4309 32.1544 37.9487 29.2886C39.8259 25.777 42.2224 22.9112 44.9385 20.7316C44.8586 20.4894 44.7787 20.2472 44.7787 19.9647C44.7787 19.6821 44.7787 19.3996 44.8586 19.1574C43.0213 18.2291 41.2638 17.7043 39.7461 17.7447C34.5137 20.893 30.7991 26.3824 30.1201 32.7598C30.7592 34.5358 32.1971 36.4733 34.2741 38.2492Z" fill="#525757"/>
<path d="M59.0372 45.8375C58.1984 45.6357 57.4395 45.1514 56.9602 44.4652C55.1628 44.9899 53.2856 45.3128 51.3684 45.4339C50.8891 45.4743 50.4098 45.4743 49.9704 45.4743C45.2972 45.4743 40.7838 44.0616 37.0692 41.9223C36.7497 42.2452 36.3104 42.5278 35.8311 42.6085C35.871 45.8375 36.6299 48.7841 38.1477 51.1655C41.4229 53.5469 45.4171 54.9596 49.7707 54.9596C52.3669 54.9596 54.8832 54.4349 57.1599 53.5066C58.1585 51.4884 58.8375 48.7841 59.0372 45.8375Z" fill="#525757"/>
<path d="M30 35.5449C30.1598 40.7518 32.2367 45.4339 35.5918 48.9455C34.8729 46.9677 34.5134 44.7881 34.5134 42.4874C33.7146 42.1645 33.1155 41.3976 33.0755 40.4692C33.0356 40.0252 33.1155 39.6216 33.3152 39.2583C31.9571 38.0878 30.8388 36.8365 30 35.5449Z" fill="#525757"/>
<path d="M63.2718 41.6801C63.3118 41.8416 63.3118 41.9627 63.3118 42.1241C63.4316 43.9808 62.1534 45.555 60.396 45.8779C60.2362 48.2997 59.7969 50.6004 58.998 52.6589C65.1491 49.3492 69.3829 42.891 69.5427 35.4238C68.1048 37.886 65.9479 40.0252 63.2718 41.6801Z" fill="#525757"/>
<path d="M58.7576 38.9354C58.2383 35.5853 57.12 32.2755 55.3625 29.3693C53.6051 26.5035 51.3284 23.9606 48.9719 21.9828C48.5725 22.2654 48.0932 22.4672 47.5739 22.5076C46.8949 22.5479 46.2159 22.3057 45.7366 21.9021C43.1404 23.9606 40.9036 26.665 39.1063 29.9748C37.6684 32.6387 36.7098 35.4238 36.2305 38.1685C37.0293 38.4914 37.6284 39.2583 37.7083 40.227C37.7083 40.3885 37.7083 40.5903 37.6684 40.7518C41.4229 42.9717 46.2159 44.4652 51.2885 44.1423C53.0459 44.0212 54.7634 43.7386 56.3611 43.2946C56.3211 43.0928 56.2812 42.8507 56.2413 42.6488C56.1614 40.8729 57.2398 39.4198 58.7576 38.9354Z" fill="#00A9E5"/>
<path d="M49.9713 19.2381C50.0112 19.3592 50.0112 19.5207 50.0512 19.6821C50.0911 20.1261 50.0112 20.5298 49.8115 20.9334C52.2879 22.9919 54.6045 25.6559 56.4818 28.6831C58.1593 31.3875 59.3975 34.9798 60.0366 38.8143C61.1949 38.8951 62.1934 39.5005 62.7926 40.4289C65.948 38.4107 68.3045 35.7064 69.383 32.6387H69.4229C68.664 26.0595 64.7098 20.449 59.1978 17.4218C55.9625 17.2603 52.8471 17.9062 49.9713 19.2381Z" fill="#00A9E5"/>
<path d="M45.4971 17.9869C45.9365 17.5025 46.5356 17.22 47.2545 17.1796C48.0933 17.1393 48.8522 17.4622 49.3714 18.0272C51.5682 16.9778 53.9248 16.3724 56.3612 16.1302C54.2843 15.4036 52.0475 15 49.7709 15C46.9749 15 44.3388 15.6054 41.9023 16.6549C43.0607 16.8971 44.2988 17.3411 45.4971 17.9869Z" fill="#0091D2"/>
<path d="M34.2741 38.2492C34.4738 38.1282 34.6735 38.0474 34.9131 38.0071C35.4324 35.1009 36.4309 32.1544 37.9487 29.2886C39.8259 25.777 42.2224 22.9112 44.9385 20.7316C44.8586 20.4894 44.7787 20.2472 44.7787 19.9647C44.7787 19.6821 44.7787 19.3996 44.8586 19.1574C43.0213 18.2291 41.2638 17.7043 39.7461 17.7447C34.5137 20.893 30.7991 26.3824 30.1201 32.7598C30.7592 34.5358 32.1971 36.4733 34.2741 38.2492Z" fill="#0091D2"/>
<path d="M59.0372 45.8375C58.1984 45.6357 57.4395 45.1514 56.9602 44.4652C55.1628 44.9899 53.2856 45.3128 51.3684 45.4339C50.8891 45.4743 50.4098 45.4743 49.9704 45.4743C45.2972 45.4743 40.7838 44.0616 37.0692 41.9223C36.7497 42.2452 36.3104 42.5278 35.8311 42.6085C35.871 45.8375 36.6299 48.7841 38.1477 51.1655C41.4229 53.5469 45.4171 54.9596 49.7707 54.9596C52.3669 54.9596 54.8832 54.4349 57.1599 53.5066C58.1585 51.4884 58.8375 48.7841 59.0372 45.8375Z" fill="#00A9E5"/>
<path d="M30 35.5449C30.1598 40.7518 32.2367 45.4339 35.5918 48.9455C34.8729 46.9677 34.5134 44.7881 34.5134 42.4874C33.7146 42.1645 33.1155 41.3976 33.0755 40.4692C33.0356 40.0252 33.1155 39.6216 33.3152 39.2583C31.9571 38.0878 30.8388 36.8365 30 35.5449Z" fill="#0091D2"/>
<path d="M63.2718 41.6801C63.3118 41.8416 63.3118 41.9627 63.3118 42.1241C63.4316 43.9808 62.1534 45.555 60.396 45.8779C60.2362 48.2997 59.7969 50.6004 58.998 52.6589C65.1491 49.3492 69.3829 42.891 69.5427 35.4238C68.1048 37.886 65.9479 40.0252 63.2718 41.6801Z" fill="#00A9E5"/>
</g>
<defs>
<clipPath id="clip0_375_171522">
<rect width="137" height="40" fill="white" transform="translate(30 15)"/>
</clipPath>
<clipPath id="clip1_375_171522">
<rect width="137" height="40" fill="white" transform="translate(30 15)"/>
</clipPath>
</defs>
</svg>
