<svg width="24" height="24" viewBox="0 0 24 24" fill="none" xmlns="http://www.w3.org/2000/svg">
<path d="M10.2042 1.8705L11.3934 0.681347C11.8969 0.177832 12.7111 0.177832 13.2092 0.681347L23.6224 11.0891C24.1259 11.5926 24.1259 12.4068 23.6224 12.905L13.2092 23.3181C12.7057 23.8216 11.8915 23.8216 11.3934 23.3181L10.2042 22.129C9.69535 21.6201 9.70606 20.7898 10.2256 20.2917L16.6803 14.1423H1.28557C0.57315 14.1423 0 13.5692 0 12.8568V11.1427C0 10.4303 0.57315 9.85711 1.28557 9.85711H16.6803L10.2256 3.7078C9.7007 3.20964 9.68999 2.37937 10.2042 1.8705Z" fill="#2684FF"/>
</svg>
