<svg width="18" height="18" viewBox="0 0 18 18" fill="none" xmlns="http://www.w3.org/2000/svg">
<path d="M15.1875 2.25H13.5V0.421875C13.5 0.188895 13.3111 0 13.0781 0H11.6719C11.4389 0 11.25 0.188895 11.25 0.421875V2.25H6.75V0.421875C6.75 0.188895 6.56111 0 6.32812 0H4.92188C4.68889 0 4.5 0.188895 4.5 0.421875V2.25H2.8125C1.88051 2.25 1.125 3.00551 1.125 3.9375V16.3125C1.125 17.2445 1.88051 18 2.8125 18H15.1875C16.1195 18 16.875 17.2445 16.875 16.3125V3.9375C16.875 3.00551 16.1195 2.25 15.1875 2.25ZM14.9766 16.3125H3.02344C2.96749 16.3125 2.91384 16.2903 2.87428 16.2507C2.83472 16.2112 2.8125 16.1575 2.8125 16.1016V5.625H15.1875V16.1016C15.1875 16.1575 15.1653 16.2112 15.1257 16.2507C15.0862 16.2903 15.0325 16.3125 14.9766 16.3125ZM13.1186 9.2584L8.11554 14.2214C7.95013 14.3854 7.68301 14.3844 7.5189 14.219L4.87898 11.5577C4.71491 11.3923 4.71596 11.1252 4.88138 10.9611L5.68009 10.1688C5.8455 10.0047 6.11262 10.0057 6.27669 10.1712L7.82722 11.7343L11.7321 7.86073C11.8975 7.69665 12.1646 7.69771 12.3287 7.86312L13.121 8.6618C13.2851 8.82721 13.284 9.09432 13.1186 9.2584Z" fill="#0065FF"/>
</svg>
