<svg width="18" height="18" viewBox="0 0 18 18" fill="none" xmlns="http://www.w3.org/2000/svg">
<path d="M6.99609 11.6508L6.66563 13.5703C6.60586 13.9184 6.97148 14.175 7.27734 14.0133L8.99648 13.1062L10.7156 14.0133C11.0215 14.175 11.3871 13.9148 11.3273 13.5703L10.9969 11.6508L12.3891 10.2937C12.6387 10.0512 12.5016 9.62578 12.157 9.57305L10.234 9.2918L9.37266 7.54805C9.21797 7.23867 8.77148 7.23164 8.6168 7.54805L7.75547 9.2918L5.83242 9.57305C5.48789 9.62226 5.35078 10.0477 5.60039 10.2937L6.99609 11.6508ZM15.1875 2.25H13.5V0.5625C13.5 0.253125 13.2469 0 12.9375 0H11.8125C11.5031 0 11.25 0.253125 11.25 0.5625V2.25H6.75V0.5625C6.75 0.253125 6.49687 0 6.1875 0H5.0625C4.75312 0 4.5 0.253125 4.5 0.5625V2.25H2.8125C1.88086 2.25 1.125 3.00586 1.125 3.9375V16.3125C1.125 17.2441 1.88086 18 2.8125 18H15.1875C16.1191 18 16.875 17.2441 16.875 16.3125V3.9375C16.875 3.00586 16.1191 2.25 15.1875 2.25ZM15.1875 16.1016C15.1875 16.2176 15.0926 16.3125 14.9766 16.3125H3.02344C2.90742 16.3125 2.8125 16.2176 2.8125 16.1016V5.625H15.1875V16.1016Z" fill="#0065FF"/>
</svg>
