<svg width="16" height="18" viewBox="0 0 16 18" fill="none" xmlns="http://www.w3.org/2000/svg">
<path d="M4.0625 12.9375H7.4375C7.74687 12.9375 8 12.6844 8 12.375V9C8 8.69063 7.74687 8.4375 7.4375 8.4375H4.0625C3.75312 8.4375 3.5 8.69063 3.5 9V12.375C3.5 12.6844 3.75312 12.9375 4.0625 12.9375ZM14.1875 2.25H12.5V0.5625C12.5 0.253125 12.2469 0 11.9375 0H10.8125C10.5031 0 10.25 0.253125 10.25 0.5625V2.25H5.75V0.5625C5.75 0.253125 5.49687 0 5.1875 0H4.0625C3.75312 0 3.5 0.253125 3.5 0.5625V2.25H1.8125C0.880859 2.25 0.125 3.00586 0.125 3.9375V16.3125C0.125 17.2441 0.880859 18 1.8125 18H14.1875C15.1191 18 15.875 17.2441 15.875 16.3125V3.9375C15.875 3.00586 15.1191 2.25 14.1875 2.25ZM14.1875 16.1016C14.1875 16.2176 14.0926 16.3125 13.9766 16.3125H2.02344C1.90742 16.3125 1.8125 16.2176 1.8125 16.1016V5.625H14.1875V16.1016Z" fill="#0065FF"/>
</svg>
