<svg width="13" height="16" viewBox="0 0 13 16" fill="none" xmlns="http://www.w3.org/2000/svg">
<path d="M9.5 7.75V8.625C9.5 8.83125 9.33125 9 9.125 9H3.875C3.66875 9 3.5 8.83125 3.5 8.625V7.75C3.5 7.54375 3.66875 7.375 3.875 7.375H9.125C9.33125 7.375 9.5 7.54375 9.5 7.75ZM9.125 10H3.875C3.66875 10 3.5 10.1687 3.5 10.375V11.25C3.5 11.4563 3.66875 11.625 3.875 11.625H9.125C9.33125 11.625 9.5 11.4563 9.5 11.25V10.375C9.5 10.1687 9.33125 10 9.125 10ZM12.5 4.12187V14.5C12.5 15.3281 11.8281 16 11 16H2C1.17188 16 0.5 15.3281 0.5 14.5V1.5C0.5 0.671875 1.17188 0 2 0H8.37813C8.775 0 9.15625 0.159375 9.4375 0.440625L12.0594 3.0625C12.3406 3.34063 12.5 3.725 12.5 4.12187ZM8.5 1.62188V4H10.8781L8.5 1.62188ZM11 14.5V5.5H7.75C7.33437 5.5 7 5.16563 7 4.75V1.5H2V14.5H11Z" fill="#B7C4D6"/>
</svg>
