<svg width="24" height="24" viewBox="0 0 24 24" fill="none" xmlns="http://www.w3.org/2000/svg">
<path d="M11.9995 11.3226C12.3721 11.3226 12.6769 11.6274 12.6769 12C12.6769 12.3726 12.3721 12.6774 11.9995 12.6774C11.6269 12.6774 11.3221 12.3726 11.3221 12C11.3221 11.6274 11.6269 11.3226 11.9995 11.3226ZM11.9995 8.51613C10.0737 8.51613 8.51562 10.0742 8.51562 12C8.51562 13.9258 10.0737 15.4839 11.9995 15.4839C13.9253 15.4839 15.4834 13.9258 15.4834 12C15.4834 10.0742 13.9253 8.51613 11.9995 8.51613ZM11.9995 2.80645C12.3721 2.80645 12.6769 3.11129 12.6769 3.48387C12.6769 3.85645 12.3721 4.16129 11.9995 4.16129C11.6269 4.16129 11.3221 3.85645 11.3221 3.48387C11.3221 3.11129 11.6269 2.80645 11.9995 2.80645ZM11.9995 0C10.0737 0 8.51562 1.55806 8.51562 3.48387C8.51562 5.40968 10.0737 6.96774 11.9995 6.96774C13.9253 6.96774 15.4834 5.40968 15.4834 3.48387C15.4834 1.55806 13.9253 0 11.9995 0ZM11.9995 19.8387C12.3721 19.8387 12.6769 20.1435 12.6769 20.5161C12.6769 20.8887 12.3721 21.1935 11.9995 21.1935C11.6269 21.1935 11.3221 20.8887 11.3221 20.5161C11.3221 20.1435 11.6269 19.8387 11.9995 19.8387ZM11.9995 17.0323C10.0737 17.0323 8.51562 18.5903 8.51562 20.5161C8.51562 22.4419 10.0737 24 11.9995 24C13.9253 24 15.4834 22.4419 15.4834 20.5161C15.4834 18.5903 13.9253 17.0323 11.9995 17.0323Z" fill="#B7C4D6"/>
</svg>
