<svg width="18" height="18" viewBox="0 0 18 18" fill="none" xmlns="http://www.w3.org/2000/svg">
<path d="M9 6.38721C7.55564 6.38721 6.3871 7.55576 6.3871 9.00011C6.3871 10.4445 7.55564 11.613 9 11.613C10.4444 11.613 11.6129 10.4445 11.6129 9.00011C11.6129 7.55576 10.4444 6.38721 9 6.38721ZM9 9.87108C8.52097 9.87108 8.12903 9.47914 8.12903 9.00011C8.12903 8.52108 8.52097 8.12914 9 8.12914C9.47903 8.12914 9.87097 8.52108 9.87097 9.00011C9.87097 9.47914 9.47903 9.87108 9 9.87108ZM15.3871 6.38721C13.9427 6.38721 12.7742 7.55576 12.7742 9.00011C12.7742 10.4445 13.9427 11.613 15.3871 11.613C16.8315 11.613 18 10.4445 18 9.00011C18 7.55576 16.8315 6.38721 15.3871 6.38721ZM15.3871 9.87108C14.9081 9.87108 14.5161 9.47914 14.5161 9.00011C14.5161 8.52108 14.9081 8.12914 15.3871 8.12914C15.8661 8.12914 16.2581 8.52108 16.2581 9.00011C16.2581 9.47914 15.8661 9.87108 15.3871 9.87108ZM2.6129 6.38721C1.16855 6.38721 0 7.55576 0 9.00011C0 10.4445 1.16855 11.613 2.6129 11.613C4.05726 11.613 5.22581 10.4445 5.22581 9.00011C5.22581 7.55576 4.05726 6.38721 2.6129 6.38721ZM2.6129 9.87108C2.13387 9.87108 1.74194 9.47914 1.74194 9.00011C1.74194 8.52108 2.13387 8.12914 2.6129 8.12914C3.09194 8.12914 3.48387 8.52108 3.48387 9.00011C3.48387 9.47914 3.09194 9.87108 2.6129 9.87108Z" fill="#F34A23"/>
</svg>
