<svg width="14" height="14" viewBox="0 0 14 14" fill="none" xmlns="http://www.w3.org/2000/svg">
<path d="M11.8656 2.67807L9.57193 0.384426C9.32579 0.138284 8.99195 1.82021e-06 8.64385 0H3.0625C2.33762 0 1.75 0.587617 1.75 1.3125V12.6875C1.75 13.4124 2.33762 14 3.0625 14H10.9375C11.6624 14 12.25 13.4124 12.25 12.6875V3.60615C12.25 3.25805 12.1117 2.92421 11.8656 2.67807ZM10.8314 3.5H8.75V1.41865L10.8314 3.5ZM3.0625 12.6875V1.3125H7.4375V4.15625C7.4375 4.51869 7.73131 4.8125 8.09375 4.8125H10.9375V12.6875H3.0625ZM10.2033 7.41943L6.31209 11.2795C6.18343 11.4071 5.97568 11.4063 5.84804 11.2777L3.79477 9.20773C3.66715 9.07908 3.66797 8.87132 3.79662 8.74368L4.41785 8.12747C4.5465 7.99985 4.75426 8.00067 4.88187 8.12935L6.08784 9.34508L9.12497 6.33232C9.25362 6.20471 9.46137 6.20553 9.58902 6.33418L10.2052 6.95537C10.3328 7.08405 10.332 7.29178 10.2033 7.41943Z" fill="#F34A23"/>
</svg>
