<svg width="160" height="160" viewBox="0 0 160 160" fill="none" xmlns="http://www.w3.org/2000/svg">
<g filter="url(#filter0_d_306_25072)">
<path d="M25 34C25 28.4772 29.4772 24 35 24H55.1339C57.6216 24 60.0199 24.9272 61.8607 26.6006L78.1393 41.3994C79.9801 43.0728 82.3784 44 84.8661 44H123C128.523 44 133 48.4772 133 54V102C133 107.523 128.523 112 123 112H35C29.4772 112 25 107.523 25 102V34Z" fill="white"/>
</g>
<path d="M113 54.3872C111.556 54.3872 110.387 55.5558 110.387 57.0001C110.387 58.4445 111.556 59.613 113 59.613C114.444 59.613 115.613 58.4445 115.613 57.0001C115.613 55.5558 114.444 54.3872 113 54.3872ZM113 57.8711C112.521 57.8711 112.129 57.4791 112.129 57.0001C112.129 56.5211 112.521 56.1291 113 56.1291C113.479 56.1291 113.871 56.5211 113.871 57.0001C113.871 57.4791 113.479 57.8711 113 57.8711ZM119.387 54.3872C117.943 54.3872 116.774 55.5558 116.774 57.0001C116.774 58.4445 117.943 59.613 119.387 59.613C120.831 59.613 122 58.4445 122 57.0001C122 55.5558 120.831 54.3872 119.387 54.3872ZM119.387 57.8711C118.908 57.8711 118.516 57.4791 118.516 57.0001C118.516 56.5211 118.908 56.1291 119.387 56.1291C119.866 56.1291 120.258 56.5211 120.258 57.0001C120.258 57.4791 119.866 57.8711 119.387 57.8711ZM106.613 54.3872C105.169 54.3872 104 55.5558 104 57.0001C104 58.4445 105.169 59.613 106.613 59.613C108.057 59.613 109.226 58.4445 109.226 57.0001C109.226 55.5558 108.057 54.3872 106.613 54.3872ZM106.613 57.8711C106.134 57.8711 105.742 57.4791 105.742 57.0001C105.742 56.5211 106.134 56.1291 106.613 56.1291C107.092 56.1291 107.484 56.5211 107.484 57.0001C107.484 57.4791 107.092 57.8711 106.613 57.8711Z" fill="#F34A23"/>
<defs>
<filter id="filter0_d_306_25072" x="15" y="18" width="128" height="108" filterUnits="userSpaceOnUse" color-interpolation-filters="sRGB">
<feFlood flood-opacity="0" result="BackgroundImageFix"/>
<feColorMatrix in="SourceAlpha" type="matrix" values="0 0 0 0 0 0 0 0 0 0 0 0 0 0 0 0 0 0 127 0" result="hardAlpha"/>
<feOffset dy="4"/>
<feGaussianBlur stdDeviation="5"/>
<feColorMatrix type="matrix" values="0 0 0 0 0.5125 0 0 0 0 0.56125 0 0 0 0 1 0 0 0 0.25 0"/>
<feBlend mode="normal" in2="BackgroundImageFix" result="effect1_dropShadow_306_25072"/>
<feBlend mode="normal" in="SourceGraphic" in2="effect1_dropShadow_306_25072" result="shape"/>
</filter>
</defs>
</svg>
