<svg width="24" height="24" viewBox="0 0 24 24" fill="none" xmlns="http://www.w3.org/2000/svg">
<g clip-path="url(#clip0_1518_3751)">
<path opacity="0.4" d="M21 6H15.75C15.5511 6 15.3603 5.92099 15.2197 5.78033C15.079 5.63968 15 5.44892 15 5.25V3.53357e-06H4.125C3.97764 -0.000366272 3.83164 0.0282939 3.69535 0.0843477C3.55905 0.140402 3.43514 0.222751 3.33067 0.326695C3.22621 0.430639 3.14324 0.554141 3.0865 0.690149C3.02976 0.826158 3.00037 0.972011 3 1.11938V22.875C2.99963 23.0224 3.02829 23.1684 3.08435 23.3047C3.1404 23.441 3.22275 23.5649 3.32669 23.6693C3.43064 23.7738 3.55414 23.8568 3.69015 23.9135C3.82616 23.9702 3.97201 23.9996 4.11938 24H19.875C20.0224 24.0004 20.1684 23.9717 20.3047 23.9157C20.441 23.8596 20.5649 23.7773 20.6693 23.6733C20.7738 23.5694 20.8568 23.4459 20.9135 23.3099C20.9702 23.1738 20.9996 23.028 21 22.8806V6ZM17.0836 16.2825L12.5625 20.7684C12.4128 20.9166 12.2106 20.9997 12 20.9997C11.7894 20.9997 11.5872 20.9166 11.4375 20.7684L6.91782 16.2825C6.44157 15.8105 6.77532 15 7.44469 15H10.5V11.25C10.5 11.0511 10.579 10.8603 10.7197 10.7197C10.8603 10.579 11.0511 10.5 11.25 10.5H12.75C12.9489 10.5 13.1397 10.579 13.2803 10.7197C13.421 10.8603 13.5 11.0511 13.5 11.25V15H16.5553C17.2247 15 17.5584 15.8105 17.0836 16.2825Z" fill="#2684FF"/>
<path d="M20.6714 4.92188L16.0823 0.328128C15.9776 0.223747 15.8533 0.14104 15.7165 0.0847371C15.5798 0.0284343 15.4333 -0.000359235 15.2854 3.38283e-06H14.9995V5.25C14.9995 5.44892 15.0785 5.63968 15.2192 5.78033C15.3598 5.92099 15.5506 6 15.7495 6H20.9995V5.71407C20.9995 5.56694 20.9705 5.42126 20.9142 5.28534C20.8579 5.14941 20.7754 5.02591 20.6714 4.92188ZM16.5548 15H13.4995V11.25C13.4995 11.0511 13.4205 10.8603 13.2798 10.7197C13.1392 10.579 12.9484 10.5 12.7495 10.5H11.2495C11.0506 10.5 10.8598 10.579 10.7192 10.7197C10.5785 10.8603 10.4995 11.0511 10.4995 11.25V15H7.44419C6.77482 15 6.44107 15.8105 6.91732 16.2825L11.437 20.7684C11.5867 20.9166 11.7889 20.9997 11.9995 20.9997C12.2101 20.9997 12.4123 20.9166 12.562 20.7684L17.0831 16.2825C17.5579 15.8105 17.2242 15 16.5548 15Z" fill="#2684FF"/>
</g>
<defs>
<clipPath id="clip0_1518_3751">
<rect width="24" height="24" fill="white"/>
</clipPath>
</defs>
</svg>
