<svg width="16" height="14" viewBox="0 0 16 14" fill="none" xmlns="http://www.w3.org/2000/svg">
<path d="M7.20003 8.59964C7.20003 6.96338 8.18978 5.55763 9.60004 4.93863V4.59963H6.20003C6.04104 4.59916 5.88869 4.5358 5.77627 4.42338C5.66385 4.31096 5.60048 4.15861 5.60002 3.99962V0.599611H0.600004C0.521155 0.599413 0.443044 0.614798 0.370159 0.644881C0.297274 0.674964 0.231052 0.719152 0.175297 0.774907C0.119542 0.830661 0.0753542 0.896884 0.0452713 0.969769C0.0151885 1.04265 -0.000195981 1.12076 1.8846e-06 1.19961V12.7997C-0.000195981 12.8785 0.0151885 12.9566 0.0452713 13.0295C0.0753542 13.1024 0.119542 13.1686 0.175297 13.2244C0.231052 13.2801 0.297274 13.3243 0.370159 13.3544C0.443044 13.3845 0.521155 13.3999 0.600004 13.3997H9.00004C9.07888 13.3999 9.15699 13.3845 9.22988 13.3544C9.30276 13.3243 9.36899 13.2801 9.42474 13.2244C9.4805 13.1686 9.52469 13.1024 9.55477 13.0295C9.58485 12.9566 9.60023 12.8785 9.60004 12.7997V12.2607C8.18978 11.6419 7.20003 10.2359 7.20003 8.59964ZM9.60004 3.64712C9.59998 3.48867 9.53704 3.33671 9.42504 3.22462L6.97753 0.774612C6.92166 0.718942 6.85537 0.674831 6.78245 0.644803C6.70952 0.614774 6.63139 0.599418 6.55253 0.599611H6.40003V3.79962H9.60004V3.64712ZM15.8828 12.1512L13.9476 10.2159C14.241 9.72764 14.3973 9.16928 14.4001 8.59964C14.4001 7.96674 14.2124 7.34805 13.8608 6.82181C13.5091 6.29557 13.0094 5.88542 12.4246 5.64322C11.8399 5.40101 11.1965 5.33764 10.5758 5.46112C9.95501 5.58459 9.38482 5.88936 8.93729 6.33689C8.48976 6.78442 8.18499 7.35461 8.06152 7.97535C7.93805 8.59609 8.00142 9.23951 8.24362 9.82423C8.48582 10.409 8.89597 10.9087 9.42221 11.2604C9.94845 11.612 10.5671 11.7997 11.2 11.7997C11.7925 11.7997 12.3403 11.6277 12.8163 11.3469L14.7516 13.2824C14.7887 13.3196 14.8328 13.349 14.8813 13.3691C14.9299 13.3892 14.9819 13.3996 15.0344 13.3996C15.087 13.3996 15.139 13.3892 15.1875 13.3691C15.2361 13.349 15.2802 13.3196 15.3173 13.2824L15.8828 12.7169C15.92 12.6798 15.9494 12.6357 15.9695 12.5871C15.9897 12.5386 16 12.4866 16 12.434C16 12.3815 15.9897 12.3295 15.9695 12.2809C15.9494 12.2324 15.92 12.1883 15.8828 12.1512ZM11.2 10.1996C10.8836 10.1996 10.5742 10.1058 10.3111 9.93C10.048 9.75419 9.84293 9.5043 9.72183 9.21194C9.60073 8.91957 9.56904 8.59787 9.63078 8.28749C9.69252 7.97712 9.8449 7.69203 10.0687 7.46827C10.2924 7.2445 10.5775 7.09211 10.8879 7.03038C11.1983 6.96864 11.52 7.00033 11.8123 7.12143C12.1047 7.24253 12.3546 7.44761 12.5304 7.71072C12.7062 7.97384 12.8 8.28319 12.8 8.59964C12.8 9.02399 12.6315 9.43096 12.3314 9.73102C12.0314 10.0311 11.6244 10.1996 11.2 10.1996Z" fill="#2684FF"/>
</svg>
