<svg width="64" height="64" viewBox="0 0 64 64" fill="none" xmlns="http://www.w3.org/2000/svg">
<g clip-path="url(#clip0_442_25523)">
<path opacity="0.4" d="M41.9998 16C41.4694 16 40.9607 15.7893 40.5856 15.4142C40.2105 15.0391 39.9998 14.5304 39.9998 14V9.42286e-06H10.9998C10.6068 -0.000976726 10.2175 0.0754505 9.85407 0.224927C9.49063 0.374404 9.16019 0.594003 8.88161 0.871186C8.60303 1.14837 8.38178 1.47771 8.23048 1.8404C8.07919 2.20309 8.00081 2.59203 7.99983 2.98501V61C7.99884 61.393 8.07527 61.7823 8.22474 62.1458C8.37422 62.5092 8.59382 62.8396 8.871 63.1182C9.14819 63.3968 9.47753 63.6181 9.84022 63.7693C10.2029 63.9206 10.5918 63.999 10.9848 64H52.9998C53.3928 64.001 53.7821 63.9246 54.1456 63.7751C54.509 63.6256 54.8395 63.406 55.118 63.1288C55.3966 62.8516 55.6179 62.5223 55.7692 62.1596C55.9205 61.7969 55.9988 61.408 55.9998 61.015V16H41.9998ZM23.9998 54.4C23.9998 55.2 23.1998 56 22.3998 56H17.5998C16.7998 56 15.9998 55.2 15.9998 54.4V45.6C15.9998 44.8 16.7998 44 17.5998 44H22.3998C23.1998 44 23.9998 44.8 23.9998 45.6V54.4ZM35.9998 54.4C35.9998 55.2 35.1998 56 34.3998 56H29.5998C28.7998 56 27.9998 55.2 27.9998 54.4V29.6C27.9998 28.8 28.7998 28 29.5998 28H34.3998C35.1998 28 35.9998 28.8 35.9998 29.6V54.4ZM47.9998 54.4C47.9998 55.2 47.1998 56 46.3998 56H41.5998C40.7998 56 39.9998 55.2 39.9998 54.4V37.6C39.9998 36.8 40.7998 36 41.5998 36H46.3998C47.1998 36 47.9998 36.8 47.9998 37.6V54.4Z" fill="#2684FF"/>
<path d="M55.125 13.125L42.8875 0.875009C42.6082 0.596659 42.2767 0.376107 41.9121 0.225966C41.5475 0.0758249 41.1568 -0.000957961 40.7625 9.02088e-06H40V14C40 14.5304 40.2107 15.0392 40.5858 15.4142C40.9609 15.7893 41.4696 16 42 16H56V15.2375C56 14.8452 55.9227 14.4567 55.7726 14.0942C55.6225 13.7318 55.4024 13.4024 55.125 13.125ZM22.4 44H17.6C16.8 44 16 44.8 16 45.6V54.4C16 55.2 16.8 56 17.6 56H22.4C23.2 56 24 55.2 24 54.4V45.6C24 44.8 23.2 44 22.4 44ZM34.4 28H29.6C28.8 28 28 28.8 28 29.6V54.4C28 55.2 28.8 56 29.6 56H34.4C35.2 56 36 55.2 36 54.4V29.6C36 28.8 35.2 28 34.4 28ZM46.4 36H41.6C40.8 36 40 36.8 40 37.6V54.4C40 55.2 40.8 56 41.6 56H46.4C47.2 56 48 55.2 48 54.4V37.6C48 36.8 47.2 36 46.4 36Z" fill="#2684FF"/>
</g>
<defs>
<clipPath id="clip0_442_25523">
<rect width="64" height="64" fill="white"/>
</clipPath>
</defs>
</svg>
