<svg width="16" height="16" viewBox="0 0 16 16" fill="none" xmlns="http://www.w3.org/2000/svg">
<path d="M7.20003 9.59988C7.20003 7.96363 8.18978 6.55787 9.60004 5.93887V5.59987H6.20003C6.04104 5.59941 5.88869 5.53605 5.77627 5.42362C5.66385 5.3112 5.60048 5.15886 5.60002 4.99987V1.59986H0.600004C0.521155 1.59966 0.443044 1.61504 0.370159 1.64512C0.297274 1.67521 0.231052 1.7194 0.175297 1.77515C0.119542 1.83091 0.0753542 1.89713 0.0452713 1.97001C0.0151885 2.0429 -0.000195981 2.12101 1.8846e-06 2.19986V13.7999C-0.000195981 13.8787 0.0151885 13.9569 0.0452713 14.0297C0.0753542 14.1026 0.119542 14.1689 0.175297 14.2246C0.231052 14.2804 0.297274 14.3245 0.370159 14.3546C0.443044 14.3847 0.521155 14.4001 0.600004 14.3999H9.00004C9.07888 14.4001 9.15699 14.3847 9.22988 14.3546C9.30276 14.3245 9.36899 14.2804 9.42474 14.2246C9.4805 14.1689 9.52469 14.1026 9.55477 14.0297C9.58485 13.9569 9.60023 13.8787 9.60004 13.7999V13.2609C8.18978 12.6421 7.20003 11.2361 7.20003 9.59988ZM9.60004 4.64737C9.59998 4.48891 9.53704 4.33695 9.42504 4.22486L6.97753 1.77486C6.92166 1.71919 6.85537 1.67508 6.78245 1.64505C6.70952 1.61502 6.63139 1.59966 6.55253 1.59986H6.40003V4.79987H9.60004V4.64737ZM15.8828 13.1514L13.9476 11.2161C14.241 10.7279 14.3973 10.1695 14.4001 9.59988C14.4001 8.96698 14.2124 8.34829 13.8608 7.82205C13.5091 7.29581 13.0094 6.88566 12.4246 6.64346C11.8399 6.40126 11.1965 6.33789 10.5758 6.46136C9.95501 6.58483 9.38482 6.88961 8.93729 7.33713C8.48976 7.78466 8.18499 8.35485 8.06152 8.97559C7.93805 9.59633 8.00142 10.2398 8.24362 10.8245C8.48582 11.4092 8.89597 11.909 9.42221 12.2606C9.94845 12.6122 10.5671 12.7999 11.2 12.7999C11.7925 12.7999 12.3403 12.6279 12.8163 12.3471L14.7516 14.2827C14.7887 14.3198 14.8328 14.3493 14.8813 14.3694C14.9299 14.3895 14.9819 14.3998 15.0344 14.3998C15.087 14.3998 15.139 14.3895 15.1875 14.3694C15.2361 14.3493 15.2802 14.3198 15.3173 14.2827L15.8828 13.7171C15.92 13.68 15.9494 13.6359 15.9695 13.5874C15.9897 13.5388 16 13.4868 16 13.4343C16 13.3817 15.9897 13.3297 15.9695 13.2812C15.9494 13.2326 15.92 13.1885 15.8828 13.1514ZM11.2 11.1999C10.8836 11.1999 10.5742 11.1061 10.3111 10.9302C10.048 10.7544 9.84293 10.5045 9.72183 10.2122C9.60073 9.91982 9.56904 9.59811 9.63078 9.28774C9.69252 8.97737 9.8449 8.69227 10.0687 8.46851C10.2924 8.24474 10.5775 8.09236 10.8879 8.03062C11.1983 7.96889 11.52 8.00057 11.8123 8.12167C12.1047 8.24277 12.3546 8.44785 12.5304 8.71097C12.7062 8.97409 12.8 9.28343 12.8 9.59988C12.8 10.0242 12.6315 10.4312 12.3314 10.7313C12.0314 11.0313 11.6244 11.1999 11.2 11.1999Z" fill="#2684FF"/>
</svg>
