<svg width="100" height="100" viewBox="0 0 100 100" fill="none" xmlns="http://www.w3.org/2000/svg">
<path d="M70.3125 71.875H60.9375V81.25H70.3125V71.875ZM54.6875 56.25H45.3125V65.625H54.6875V56.25ZM70.3125 56.25H60.9375V65.625H70.3125V56.25ZM54.6875 71.875H45.3125V81.25H54.6875V71.875ZM56.25 26.5625V0H17.1875C14.5898 0 12.5 2.08984 12.5 4.6875V95.3125C12.5 97.9102 14.5898 100 17.1875 100H82.8125C85.4102 100 87.5 97.9102 87.5 95.3125V31.25H60.9375C58.3594 31.25 56.25 29.1406 56.25 26.5625ZM76.5625 46.875V84.375C76.5625 86.1016 75.1641 87.5 73.4375 87.5H26.5625C24.8359 87.5 23.4375 86.1016 23.4375 84.375V46.875C23.4375 45.1484 24.8359 43.75 26.5625 43.75H73.4375C75.1641 43.75 76.5625 45.1484 76.5625 46.875ZM86.1328 20.5078L67.0117 1.36719C66.1328 0.488281 64.9414 0 63.6914 0H62.5V25H87.5V23.8086C87.5 22.5781 87.0117 21.3867 86.1328 20.5078ZM39.0625 56.25H29.6875V65.625H39.0625V56.25ZM39.0625 71.875H29.6875V81.25H39.0625V71.875Z" fill="#2684FF"/>
</svg>
