<svg width="24" height="16" viewBox="0 0 24 16" fill="none" xmlns="http://www.w3.org/2000/svg">
<path opacity="0.4" d="M3.79555 2.6001C3.37917 3.47475 2.67446 4.17946 1.7998 4.59585V11.4043C2.67446 11.8207 3.37917 12.5254 3.79555 13.4001H20.2041C20.6204 12.5254 21.3252 11.8207 22.1998 11.4043V4.59585C21.3252 4.17946 20.6204 3.47475 20.2041 2.6001H3.79555ZM11.9998 12.2001C10.0123 12.2001 8.3998 10.3191 8.3998 8.0001C8.3998 5.6811 10.0123 3.8001 11.9998 3.8001C13.9873 3.8001 15.5998 5.68035 15.5998 8.0001C15.5998 10.3198 13.9873 12.2001 11.9998 12.2001Z" fill="white"/>
<path d="M23.1 0.800049H0.9C0.661305 0.800049 0.432387 0.89487 0.263604 1.06365C0.0948212 1.23244 0 1.46135 0 1.70005L0 14.3C0 14.5387 0.0948212 14.7677 0.263604 14.9364C0.432387 15.1052 0.661305 15.2 0.9 15.2H23.1C23.3387 15.2 23.5676 15.1052 23.7364 14.9364C23.9052 14.7677 24 14.5387 24 14.3V1.70005C24 1.46135 23.9052 1.23244 23.7364 1.06365C23.5676 0.89487 23.3387 0.800049 23.1 0.800049ZM22.2 11.4043C21.3253 11.8207 20.6206 12.5254 20.2043 13.4H3.79575C3.37936 12.5254 2.67465 11.8207 1.8 11.4043V4.5958C2.67465 4.17941 3.37936 3.4747 3.79575 2.60005H20.2043C20.6206 3.4747 21.3253 4.17941 22.2 4.5958V11.4043ZM13.2 9.20005H12.6V5.90005C12.6 5.82048 12.5684 5.74418 12.5121 5.68792C12.4559 5.63166 12.3796 5.60005 12.3 5.60005H11.7908C11.6132 5.59973 11.4396 5.65192 11.2916 5.75005L10.7168 6.1333C10.6507 6.17742 10.6048 6.24594 10.5892 6.32384C10.5736 6.40173 10.5895 6.48263 10.6335 6.5488L10.9665 7.04792C11.0106 7.11399 11.0791 7.15985 11.157 7.17546C11.2349 7.19106 11.3158 7.17514 11.382 7.13117L11.3996 7.11955V9.20005H10.8C10.7204 9.20005 10.6441 9.23166 10.5879 9.28792C10.5316 9.34418 10.5 9.42048 10.5 9.50005V10.1C10.5 10.1796 10.5316 10.2559 10.5879 10.3122C10.6441 10.3684 10.7204 10.4 10.8 10.4H13.2C13.2796 10.4 13.3559 10.3684 13.4121 10.3122C13.4684 10.2559 13.5 10.1796 13.5 10.1V9.50005C13.5 9.42048 13.4684 9.34418 13.4121 9.28792C13.3559 9.23166 13.2796 9.20005 13.2 9.20005Z" fill="white"/>
</svg>
