<svg width="40" height="40" viewBox="0 0 40 40" fill="none" xmlns="http://www.w3.org/2000/svg">
<rect width="40" height="40" rx="10" fill="#F3F8FF"/>
<path d="M19.4702 19.7713C19.7619 20.0796 20.2368 20.0796 20.5326 19.7713L25.0699 15.0132C26.3865 13.63 26.3115 11.3385 24.8366 10.0635C23.5533 8.95108 21.6409 9.15107 20.466 10.3843L19.9993 10.8718L19.5369 10.3885C18.3619 9.15107 16.4495 8.95108 15.1663 10.0635C13.6955 11.3385 13.6164 13.63 14.933 15.0132L19.4702 19.7713ZM31.5529 23.0045C31.0612 22.5587 30.2946 22.5878 29.778 23.0045L25.9282 26.0835C25.4574 26.4626 24.8699 26.6668 24.2616 26.6668H19.3327C18.9661 26.6668 18.6661 26.3668 18.6661 26.0001C18.6661 25.6335 18.9661 25.3335 19.3327 25.3335H22.595C23.2575 25.3335 23.8741 24.8794 23.9825 24.2252C24.1199 23.392 23.4783 22.667 22.6659 22.667H15.9996C14.8746 22.667 13.7872 23.0545 12.9122 23.7628L10.9748 25.3335H8.66663C8.29998 25.3335 8 25.6335 8 26.0001V29.9999C8 30.3666 8.29998 30.6666 8.66663 30.6666H23.5325C24.1366 30.6666 24.7241 30.4624 25.199 30.0833L31.4987 25.0419C32.132 24.5377 32.182 23.5711 31.5529 23.0045Z" fill="#2684FF"/>
</svg>
