<svg width="24" height="24" viewBox="0 0 24 24" fill="none" xmlns="http://www.w3.org/2000/svg">
<path d="M6.85714 8.57143C7.1962 8.57143 7.52764 8.47089 7.80955 8.28252C8.09146 8.09415 8.31119 7.82642 8.44094 7.51317C8.57069 7.19993 8.60464 6.85524 8.53849 6.5227C8.47234 6.19016 8.30907 5.88471 8.06933 5.64496C7.82958 5.40521 7.52412 5.24194 7.19158 5.1758C6.85904 5.10965 6.51436 5.1436 6.20111 5.27335C5.88787 5.4031 5.62013 5.62282 5.43177 5.90474C5.2434 6.18665 5.14286 6.51809 5.14286 6.85714C5.14286 7.3118 5.32347 7.74783 5.64496 8.06933C5.96645 8.39082 6.40249 8.57143 6.85714 8.57143ZM22.2857 0H1.71429C1.25963 0 0.823594 0.180612 0.502103 0.502103C0.180612 0.823593 0 1.25963 0 1.71429L0 22.2857C0 22.7404 0.180612 23.1764 0.502103 23.4979C0.823594 23.8194 1.25963 24 1.71429 24H22.2857C22.7404 24 23.1764 23.8194 23.4979 23.4979C23.8194 23.1764 24 22.7404 24 22.2857V1.71429C24 1.25963 23.8194 0.823593 23.4979 0.502103C23.1764 0.180612 22.7404 0 22.2857 0ZM20.5714 17.1429H3.42857V3.42857H20.5714V17.1429ZM14.4 9.48589C14.3202 9.37944 14.2166 9.29304 14.0976 9.23353C13.9786 9.17402 13.8474 9.14304 13.7143 9.14304C13.5812 9.14304 13.45 9.17402 13.331 9.23353C13.2119 9.29304 13.1084 9.37944 13.0286 9.48589L10.3864 13.0082L9.28446 11.3571C9.20618 11.2398 9.10014 11.1436 8.97576 11.077C8.85138 11.0105 8.71249 10.9757 8.57143 10.9757C8.43036 10.9757 8.29148 11.0105 8.1671 11.077C8.04272 11.1436 7.93668 11.2398 7.85839 11.3571L5.14286 15.4286H18.8571L14.4 9.48589Z" fill="#B7C4D6"/>
</svg>
