<svg width="18" height="18" viewBox="0 0 18 18" fill="none" xmlns="http://www.w3.org/2000/svg">
<g clip-path="url(#clip0_1107_7431)">
<path opacity="0.4" d="M12.9375 3.375C12.7883 3.375 12.6452 3.31574 12.5398 3.21025C12.4343 3.10476 12.375 2.96169 12.375 2.8125V2.65018e-06H3.09375C2.98322 -0.000274704 2.87373 0.0212204 2.77151 0.0632608C2.66929 0.105301 2.57635 0.167063 2.498 0.245021C2.41965 0.322979 2.35742 0.415605 2.31487 0.517612C2.27232 0.619619 2.25028 0.729008 2.25 0.839534V6.75H5.15918C5.45744 6.75005 5.74348 6.86854 5.95441 7.07942L6.42059 7.54559C6.63152 7.75647 6.91756 7.87496 7.21582 7.875H10.7842C11.0824 7.87496 11.3685 7.75647 11.5794 7.54559L12.0456 7.07942C12.2565 6.86854 12.5426 6.75005 12.8408 6.75H15.75V3.375H12.9375Z" fill="#2684FF"/>
<path d="M12.9375 3.375H15.75V3.21399C15.75 3.04691 15.6836 2.88669 15.5654 2.76856L12.9839 0.184572C12.925 0.125858 12.8551 0.079335 12.7782 0.0476646C12.7012 0.0159943 12.6188 -0.00020207 12.5357 1.90284e-06H12.375V2.8125C12.375 2.96169 12.4343 3.10476 12.5398 3.21025C12.6452 3.31574 12.7883 3.375 12.9375 3.375ZM16.875 6.75H12.8408C12.5426 6.75005 12.2565 6.86853 12.0456 7.07942L11.5794 7.54559C11.3685 7.75647 11.0824 7.87496 10.7842 7.875H7.21582C6.91756 7.87496 6.63152 7.75647 6.42059 7.54559L5.95441 7.07942C5.74348 6.86853 5.45744 6.75005 5.15918 6.75H1.125C0.826631 6.75 0.540483 6.86853 0.329505 7.07951C0.118526 7.29049 0 7.57663 0 7.875L0 9C0 9.29837 0.118526 9.58452 0.329505 9.7955C0.540483 10.0065 0.826631 10.125 1.125 10.125V15.75C1.125 16.3467 1.36205 16.919 1.78401 17.341C2.20597 17.7629 2.77826 18 3.375 18H14.625C15.2217 18 15.794 17.7629 16.216 17.341C16.6379 16.919 16.875 16.3467 16.875 15.75V10.125C17.1734 10.125 17.4595 10.0065 17.6705 9.7955C17.8815 9.58452 18 9.29837 18 9V7.875C18 7.57663 17.8815 7.29049 17.6705 7.07951C17.4595 6.86853 17.1734 6.75 16.875 6.75ZM11.8125 10.4063C11.8125 10.3317 11.8421 10.2601 11.8949 10.2074C11.9476 10.1546 12.0192 10.125 12.0938 10.125H12.6562C12.7308 10.125 12.8024 10.1546 12.8551 10.2074C12.9079 10.2601 12.9375 10.3317 12.9375 10.4063V10.9688C12.9375 11.0433 12.9079 11.1149 12.8551 11.1676C12.8024 11.2204 12.7308 11.25 12.6562 11.25H12.0938C12.0192 11.25 11.9476 11.2204 11.8949 11.1676C11.8421 11.1149 11.8125 11.0433 11.8125 10.9688V10.4063ZM10.9688 12.375H11.5312C11.6058 12.375 11.6774 12.4046 11.7301 12.4574C11.7829 12.5101 11.8125 12.5817 11.8125 12.6563V13.2188C11.8125 13.2933 11.7829 13.3649 11.7301 13.4176C11.6774 13.4704 11.6058 13.5 11.5312 13.5H10.9688C10.8942 13.5 10.8226 13.4704 10.7699 13.4176C10.7171 13.3649 10.6875 13.2933 10.6875 13.2188V12.6563C10.6875 12.5817 10.7171 12.5101 10.7699 12.4574C10.8226 12.4046 10.8942 12.375 10.9688 12.375ZM9.5625 10.4063C9.5625 10.3317 9.59213 10.2601 9.64488 10.2074C9.69762 10.1546 9.76916 10.125 9.84375 10.125H10.4062C10.4808 10.125 10.5524 10.1546 10.6051 10.2074C10.6579 10.2601 10.6875 10.3317 10.6875 10.4063V10.9688C10.6875 11.0433 10.6579 11.1149 10.6051 11.1676C10.5524 11.2204 10.4808 11.25 10.4062 11.25H9.84375C9.76916 11.25 9.69762 11.2204 9.64488 11.1676C9.59213 11.1149 9.5625 11.0433 9.5625 10.9688V10.4063ZM8.71875 12.375H9.28125C9.35584 12.375 9.42738 12.4046 9.48012 12.4574C9.53287 12.5101 9.5625 12.5817 9.5625 12.6563V13.2188C9.5625 13.2933 9.53287 13.3649 9.48012 13.4176C9.42738 13.4704 9.35584 13.5 9.28125 13.5H8.71875C8.64416 13.5 8.57262 13.4704 8.51988 13.4176C8.46713 13.3649 8.4375 13.2933 8.4375 13.2188V12.6563C8.4375 12.5817 8.46713 12.5101 8.51988 12.4574C8.57262 12.4046 8.64416 12.375 8.71875 12.375ZM7.3125 10.4063C7.3125 10.3317 7.34213 10.2601 7.39488 10.2074C7.44762 10.1546 7.51916 10.125 7.59375 10.125H8.15625C8.23084 10.125 8.30238 10.1546 8.35512 10.2074C8.40787 10.2601 8.4375 10.3317 8.4375 10.4063V10.9688C8.4375 11.0433 8.40787 11.1149 8.35512 11.1676C8.30238 11.2204 8.23084 11.25 8.15625 11.25H7.59375C7.51916 11.25 7.44762 11.2204 7.39488 11.1676C7.34213 11.1149 7.3125 11.0433 7.3125 10.9688V10.4063ZM6.46875 12.375H7.03125C7.10584 12.375 7.17738 12.4046 7.23012 12.4574C7.28287 12.5101 7.3125 12.5817 7.3125 12.6563V13.2188C7.3125 13.2933 7.28287 13.3649 7.23012 13.4176C7.17738 13.4704 7.10584 13.5 7.03125 13.5H6.46875C6.39416 13.5 6.32262 13.4704 6.26988 13.4176C6.21713 13.3649 6.1875 13.2933 6.1875 13.2188V12.6563C6.1875 12.5817 6.21713 12.5101 6.26988 12.4574C6.32262 12.4046 6.39416 12.375 6.46875 12.375ZM5.0625 10.4063C5.0625 10.3317 5.09213 10.2601 5.14488 10.2074C5.19762 10.1546 5.26916 10.125 5.34375 10.125H5.90625C5.98084 10.125 6.05238 10.1546 6.10512 10.2074C6.15787 10.2601 6.1875 10.3317 6.1875 10.4063V10.9688C6.1875 11.0433 6.15787 11.1149 6.10512 11.1676C6.05238 11.2204 5.98084 11.25 5.90625 11.25H5.34375C5.26916 11.25 5.19762 11.2204 5.14488 11.1676C5.09213 11.1149 5.0625 11.0433 5.0625 10.9688V10.4063ZM3.65625 11.25H3.09375C3.01916 11.25 2.94762 11.2204 2.89488 11.1676C2.84213 11.1149 2.8125 11.0433 2.8125 10.9688V10.4063C2.8125 10.3317 2.84213 10.2601 2.89488 10.2074C2.94762 10.1546 3.01916 10.125 3.09375 10.125H3.65625C3.73084 10.125 3.80238 10.1546 3.85512 10.2074C3.90787 10.2601 3.9375 10.3317 3.9375 10.4063V10.9688C3.9375 11.0433 3.90787 11.1149 3.85512 11.1676C3.80238 11.2204 3.73084 11.25 3.65625 11.25ZM4.78125 13.5H4.21875C4.14416 13.5 4.07262 13.4704 4.01988 13.4176C3.96713 13.3649 3.9375 13.2933 3.9375 13.2188V12.6563C3.9375 12.5817 3.96713 12.5101 4.01988 12.4574C4.07262 12.4046 4.14416 12.375 4.21875 12.375H4.78125C4.85584 12.375 4.92738 12.4046 4.98012 12.4574C5.03287 12.5101 5.0625 12.5817 5.0625 12.6563V13.2188C5.0625 13.2933 5.03287 13.3649 4.98012 13.4176C4.92738 13.4704 4.85584 13.5 4.78125 13.5ZM12.9375 15.4688C12.9375 15.5433 12.9079 15.6149 12.8551 15.6676C12.8024 15.7204 12.7308 15.75 12.6562 15.75H5.34375C5.26916 15.75 5.19762 15.7204 5.14488 15.6676C5.09213 15.6149 5.0625 15.5433 5.0625 15.4688V14.9063C5.0625 14.8317 5.09213 14.7601 5.14488 14.7074C5.19762 14.6546 5.26916 14.625 5.34375 14.625H12.6562C12.7308 14.625 12.8024 14.6546 12.8551 14.7074C12.9079 14.7601 12.9375 14.8317 12.9375 14.9063V15.4688ZM14.0625 13.2188C14.0625 13.2933 14.0329 13.3649 13.9801 13.4176C13.9274 13.4704 13.8558 13.5 13.7812 13.5H13.2188C13.1442 13.5 13.0726 13.4704 13.0199 13.4176C12.9671 13.3649 12.9375 13.2933 12.9375 13.2188V12.6563C12.9375 12.5817 12.9671 12.5101 13.0199 12.4574C13.0726 12.4046 13.1442 12.375 13.2188 12.375H13.7812C13.8558 12.375 13.9274 12.4046 13.9801 12.4574C14.0329 12.5101 14.0625 12.5817 14.0625 12.6563V13.2188ZM15.1875 10.9688C15.1875 11.0433 15.1579 11.1149 15.1051 11.1676C15.0524 11.2204 14.9808 11.25 14.9062 11.25H14.3438C14.2692 11.25 14.1976 11.2204 14.1449 11.1676C14.0921 11.1149 14.0625 11.0433 14.0625 10.9688V10.4063C14.0625 10.3317 14.0921 10.2601 14.1449 10.2074C14.1976 10.1546 14.2692 10.125 14.3438 10.125H14.9062C14.9808 10.125 15.0524 10.1546 15.1051 10.2074C15.1579 10.2601 15.1875 10.3317 15.1875 10.4063V10.9688Z" fill="#2684FF"/>
</g>
<defs>
<clipPath id="clip0_1107_7431">
<rect width="18" height="18" fill="white"/>
</clipPath>
</defs>
</svg>
