<svg width="18" height="18" viewBox="0 0 18 18" fill="none" xmlns="http://www.w3.org/2000/svg">
<path opacity="0.4" d="M16.875 2.57133V4.17867C16.875 5.59477 13.3478 6.75 9 6.75C4.65223 6.75 1.125 5.59477 1.125 4.17867V2.57133C1.125 1.15523 4.65223 0 9 0C13.3478 0 16.875 1.15523 16.875 2.57133Z" fill="#2684FF"/>
<path d="M1.125 11.8125V15.4287C1.125 16.8448 4.65223 18 9 18C13.3478 18 16.875 16.8448 16.875 15.4287V11.8125C15.1829 12.9776 12.0864 13.52 9 13.52C5.91363 13.52 2.81672 12.9776 1.125 11.8125ZM9 7.89504C5.91363 7.89504 2.81672 7.35258 1.125 6.1875V9.80367C1.125 11.2198 4.65223 12.375 9 12.375C13.3478 12.375 16.875 11.2198 16.875 9.80367V6.1875C15.1829 7.35258 12.0864 7.89504 9 7.89504Z" fill="#2684FF"/>
</svg>
