<svg width="24" height="24" viewBox="0 0 24 24" fill="none" xmlns="http://www.w3.org/2000/svg">
<path opacity="0.4" d="M3.79555 6.6001C3.37917 7.47475 2.67446 8.17946 1.7998 8.59585V15.4043C2.67446 15.8207 3.37917 16.5254 3.79555 17.4001H20.2041C20.6204 16.5254 21.3252 15.8207 22.1998 15.4043V8.59585C21.3252 8.17946 20.6204 7.47475 20.2041 6.6001H3.79555ZM11.9998 16.2001C10.0123 16.2001 8.3998 14.3191 8.3998 12.0001C8.3998 9.6811 10.0123 7.8001 11.9998 7.8001C13.9873 7.8001 15.5998 9.68035 15.5998 12.0001C15.5998 14.3198 13.9873 16.2001 11.9998 16.2001Z" fill="white"/>
<path d="M23.1 4.80005H0.9C0.661305 4.80005 0.432387 4.89487 0.263604 5.06365C0.0948212 5.23244 0 5.46135 0 5.70005L0 18.3C0 18.5387 0.0948212 18.7677 0.263604 18.9364C0.432387 19.1052 0.661305 19.2 0.9 19.2H23.1C23.3387 19.2 23.5676 19.1052 23.7364 18.9364C23.9052 18.7677 24 18.5387 24 18.3V5.70005C24 5.46135 23.9052 5.23244 23.7364 5.06365C23.5676 4.89487 23.3387 4.80005 23.1 4.80005ZM22.2 15.4043C21.3253 15.8207 20.6206 16.5254 20.2043 17.4H3.79575C3.37936 16.5254 2.67465 15.8207 1.8 15.4043V8.5958C2.67465 8.17941 3.37936 7.4747 3.79575 6.60005H20.2043C20.6206 7.4747 21.3253 8.17941 22.2 8.5958V15.4043ZM13.2 13.2H12.6V9.90005C12.6 9.82048 12.5684 9.74418 12.5121 9.68792C12.4559 9.63166 12.3796 9.60005 12.3 9.60005H11.7908C11.6132 9.59973 11.4396 9.65192 11.2916 9.75005L10.7168 10.1333C10.6507 10.1774 10.6048 10.2459 10.5892 10.3238C10.5736 10.4017 10.5895 10.4826 10.6335 10.5488L10.9665 11.0479C11.0106 11.114 11.0791 11.1598 11.157 11.1755C11.2349 11.1911 11.3158 11.1751 11.382 11.1312L11.3996 11.1195V13.2H10.8C10.7204 13.2 10.6441 13.2317 10.5879 13.2879C10.5316 13.3442 10.5 13.4205 10.5 13.5V14.1C10.5 14.1796 10.5316 14.2559 10.5879 14.3122C10.6441 14.3684 10.7204 14.4 10.8 14.4H13.2C13.2796 14.4 13.3559 14.3684 13.4121 14.3122C13.4684 14.2559 13.5 14.1796 13.5 14.1V13.5C13.5 13.4205 13.4684 13.3442 13.4121 13.2879C13.3559 13.2317 13.2796 13.2 13.2 13.2Z" fill="white"/>
</svg>
