<svg width="24" height="24" viewBox="0 0 24 24" fill="none" xmlns="http://www.w3.org/2000/svg">
<path opacity="0.4" d="M22.8 8.39893H16.3875L20.8976 12.9083C21.3476 13.3585 21.6002 13.969 21.6 14.6056V17.3989C21.6 17.5581 21.5368 17.7107 21.4243 17.8232C21.3117 17.9357 21.1591 17.9989 21 17.9989H9.9C9.82044 17.9989 9.74413 17.9673 9.68787 17.9111C9.63161 17.8548 9.6 17.7785 9.6 17.6989V17.0989C9.6 17.0194 9.63161 16.9431 9.68787 16.8868C9.74413 16.8305 9.82044 16.7989 9.9 16.7989H16.0125L13.6125 14.3989H9.9C9.82044 14.3989 9.74413 14.3673 9.68787 14.3111C9.63161 14.2548 9.6 14.1785 9.6 14.0989V13.4989C9.6 13.4194 9.63161 13.3431 9.68787 13.2868C9.74413 13.2305 9.82044 13.1989 9.9 13.1989H12.4125L7.6125 8.39893H1.2C0.88174 8.39893 0.576516 8.52535 0.351472 8.7504C0.126428 8.97544 0 9.28067 0 9.59893L0 20.3989C0 20.7172 0.126428 21.0224 0.351472 21.2475C0.576516 21.4725 0.88174 21.5989 1.2 21.5989H22.8C23.1183 21.5989 23.4235 21.4725 23.6485 21.2475C23.8736 21.0224 24 20.7172 24 20.3989V9.59893C24 9.28067 23.8736 8.97544 23.6485 8.7504C23.4235 8.52535 23.1183 8.39893 22.8 8.39893ZM5.4 17.9933V18.5989C5.4 18.6785 5.36839 18.7548 5.31213 18.8111C5.25587 18.8673 5.17956 18.8989 5.1 18.8989H4.5C4.42044 18.8989 4.34413 18.8673 4.28787 18.8111C4.23161 18.7548 4.2 18.6785 4.2 18.5989V17.9869C3.77435 17.9648 3.36488 17.8167 3.02363 17.5613C2.98945 17.5347 2.96143 17.501 2.94151 17.4626C2.92158 17.4242 2.91021 17.3818 2.90817 17.3386C2.90614 17.2953 2.9135 17.2522 2.92974 17.212C2.94598 17.1719 2.97072 17.1357 3.00225 17.1061L3.44288 16.6864C3.49388 16.6398 3.55912 16.6117 3.62806 16.6067C3.69699 16.6018 3.76559 16.6202 3.82275 16.6591C3.9666 16.7501 4.13326 16.7986 4.3035 16.7989H5.35763C5.60138 16.7989 5.80013 16.5769 5.80013 16.3043C5.80013 16.0812 5.66475 15.8847 5.47125 15.8269L3.78375 15.3207C3.08663 15.1114 2.5995 14.4413 2.5995 13.6924C2.5995 12.7729 3.31387 12.0259 4.19963 12.0023V11.3989C4.19963 11.3194 4.23123 11.2431 4.28749 11.1868C4.34375 11.1305 4.42006 11.0989 4.49963 11.0989H5.09963C5.17919 11.0989 5.2555 11.1305 5.31176 11.1868C5.36802 11.2431 5.39963 11.3194 5.39963 11.3989V12.0098C5.82534 12.0316 6.23491 12.1798 6.576 12.4354C6.63872 12.4843 6.67947 12.556 6.68932 12.6349C6.69916 12.7138 6.67729 12.7934 6.6285 12.8562C6.61913 12.8685 6.60871 12.8801 6.59737 12.8907L6.15675 13.3114C6.10565 13.3579 6.04043 13.3858 5.97155 13.3908C5.90266 13.3958 5.83411 13.3775 5.77688 13.3388C5.63308 13.2476 5.46638 13.1991 5.29612 13.1989H4.242C3.99825 13.1989 3.7995 13.4209 3.7995 13.6936C3.7995 13.9167 3.93488 14.1132 4.12838 14.1709L5.81588 14.6772C6.513 14.8864 7.00013 15.5554 7.00013 16.3043C7.00013 17.2231 6.28575 17.9697 5.4 17.9933Z" fill="#0065FF"/>
<path d="M8.95417 2.66218C8.78497 2.49477 8.55657 2.40088 8.31855 2.40088C8.08053 2.40088 7.85213 2.49477 7.68293 2.66218L6.26243 4.08118C6.09526 4.24974 6.00146 4.47753 6.00146 4.71493C6.00146 4.95233 6.09526 5.18011 6.26243 5.34868L7.83367 6.91993L10.5224 4.22743L8.95417 2.66218ZM20.0489 13.7577L11.3692 5.07868L8.68042 7.76743L17.3579 16.4472C17.4692 16.5588 17.6014 16.6473 17.747 16.7078C17.8925 16.7683 18.0485 16.7995 18.2062 16.7997H19.7999C19.959 16.7997 20.1116 16.7365 20.2242 16.6239C20.3367 16.5114 20.3999 16.3588 20.3999 16.1997V14.6063C20.4001 14.2881 20.2738 13.9828 20.0489 13.7577ZM5.8158 14.6768L4.12831 14.1706C3.93481 14.1128 3.79943 13.9163 3.79943 13.6932C3.79943 13.4206 3.99818 13.1986 4.24193 13.1986H5.29605C5.46631 13.1988 5.63301 13.2473 5.7768 13.3384C5.83404 13.3771 5.90259 13.3954 5.97147 13.3904C6.04036 13.3855 6.10558 13.3575 6.15668 13.3111L6.5973 12.8903C6.60864 12.8797 6.61905 12.8682 6.62843 12.8558C6.67721 12.793 6.69909 12.7135 6.68924 12.6346C6.6794 12.5557 6.63864 12.4839 6.57593 12.4351C6.23494 12.1794 5.82552 12.0313 5.39993 12.0094V11.3997C5.39993 11.3201 5.36832 11.2438 5.31206 11.1875C5.2558 11.1313 5.17949 11.0997 5.09993 11.0997H4.49993C4.42037 11.0997 4.34406 11.1313 4.2878 11.1875C4.23154 11.2438 4.19993 11.3201 4.19993 11.3997V12.0042C3.31418 12.0278 2.59981 12.7748 2.59981 13.6943C2.59981 14.4443 3.08731 15.1122 3.78406 15.3214L5.47155 15.8277C5.66505 15.8854 5.80043 16.0819 5.80043 16.3051C5.80043 16.5777 5.60168 16.7997 5.35793 16.7997H4.30343C4.13319 16.7993 3.96653 16.7508 3.82268 16.6598C3.76552 16.621 3.69692 16.6025 3.62799 16.6075C3.55905 16.6125 3.49381 16.6405 3.44281 16.6872L3.00218 17.1068C2.97065 17.1365 2.94591 17.1726 2.92967 17.2128C2.91343 17.2529 2.90608 17.2961 2.90811 17.3393C2.91014 17.3826 2.92151 17.4249 2.94144 17.4633C2.96137 17.5018 2.98938 17.5355 3.02356 17.5621C3.36481 17.8174 3.77428 17.9656 4.19993 17.9877V18.5997C4.19993 18.6792 4.23154 18.7555 4.2878 18.8118C4.34406 18.8681 4.42037 18.8997 4.49993 18.8997H5.09993C5.17949 18.8997 5.2558 18.8681 5.31206 18.8118C5.36832 18.7555 5.39993 18.6792 5.39993 18.5997V17.9941C6.28568 17.9704 7.00005 17.2238 7.00005 16.3039C7.00005 15.5551 6.51293 14.8872 5.8158 14.6768Z" fill="#0065FF"/>
</svg>
