<svg width="24" height="24" viewBox="0 0 24 24" fill="none" xmlns="http://www.w3.org/2000/svg">
<path opacity="0.4" d="M3.79574 6.59961C3.37935 7.47426 2.67464 8.17897 1.79999 8.59536V15.4039C2.67464 15.8202 3.37935 16.525 3.79574 17.3996H20.2042C20.6206 16.525 21.3253 15.8202 22.2 15.4039V8.59536C21.3253 8.17897 20.6206 7.47426 20.2042 6.59961H3.79574ZM12 16.1996C10.0125 16.1996 8.39999 14.3186 8.39999 11.9996C8.39999 9.68061 10.0125 7.79961 12 7.79961C13.9875 7.79961 15.6 9.67986 15.6 11.9996C15.6 14.3194 13.9875 16.1996 12 16.1996Z" fill="#2ECE8C"/>
<path d="M23.1 4.7998H0.9C0.661305 4.7998 0.432387 4.89463 0.263604 5.06341C0.0948212 5.23219 0 5.46111 0 5.6998L0 18.2998C0 18.5385 0.0948212 18.7674 0.263604 18.9362C0.432387 19.105 0.661305 19.1998 0.9 19.1998H23.1C23.3387 19.1998 23.5676 19.105 23.7364 18.9362C23.9052 18.7674 24 18.5385 24 18.2998V5.6998C24 5.46111 23.9052 5.23219 23.7364 5.06341C23.5676 4.89463 23.3387 4.7998 23.1 4.7998ZM22.2 15.4041C21.3253 15.8204 20.6206 16.5252 20.2043 17.3998H3.79575C3.37936 16.5252 2.67465 15.8204 1.8 15.4041V8.59555C2.67465 8.17917 3.37936 7.47446 3.79575 6.5998H20.2043C20.6206 7.47446 21.3253 8.17917 22.2 8.59555V15.4041ZM13.2 13.1998H12.6V9.8998C12.6 9.82024 12.5684 9.74393 12.5121 9.68767C12.4559 9.63141 12.3796 9.5998 12.3 9.5998H11.7908C11.6132 9.59948 11.4396 9.65167 11.2916 9.7498L10.7168 10.1331C10.6507 10.1772 10.6048 10.2457 10.5892 10.3236C10.5736 10.4015 10.5895 10.4824 10.6335 10.5486L10.9665 11.0477C11.0106 11.1137 11.0791 11.1596 11.157 11.1752C11.2349 11.1908 11.3158 11.1749 11.382 11.1309L11.3996 11.1193V13.1998H10.8C10.7204 13.1998 10.6441 13.2314 10.5879 13.2877C10.5316 13.3439 10.5 13.4202 10.5 13.4998V14.0998C10.5 14.1794 10.5316 14.2557 10.5879 14.3119C10.6441 14.3682 10.7204 14.3998 10.8 14.3998H13.2C13.2796 14.3998 13.3559 14.3682 13.4121 14.3119C13.4684 14.2557 13.5 14.1794 13.5 14.0998V13.4998C13.5 13.4202 13.4684 13.3439 13.4121 13.2877C13.3559 13.2314 13.2796 13.1998 13.2 13.1998Z" fill="#2ECE8C"/>
</svg>
