<svg width="18" height="18" viewBox="0 0 18 18" fill="none" xmlns="http://www.w3.org/2000/svg">
<path opacity="0.4" d="M9 1.99998C4.02938 1.99998 8.06707e-06 6.02936 8.06707e-06 11C-0.00212599 12.5899 0.419184 14.1518 1.22063 15.525C1.39594 15.8256 1.73001 16 2.07813 16H15.9219C16.27 16 16.6041 15.8256 16.7794 15.525C17.5808 14.1518 18.0021 12.5899 18 11C18 6.02936 13.9706 1.99998 9 1.99998ZM14.1 7.45029L10.7078 11.9731C10.8963 12.277 10.9974 12.6269 10.9999 12.9845C11.0025 13.342 10.9065 13.6934 10.7225 14H7.2775C7.0977 13.6973 7.0019 13.3521 7 13C7 12.4695 7.21072 11.9608 7.58579 11.5858C7.96086 11.2107 8.46957 11 9 11C9.17163 11.0022 9.34223 11.0268 9.5075 11.0731L12.9 6.54967C13.0194 6.39054 13.1972 6.28537 13.3942 6.2573C13.5911 6.22923 13.7912 6.28055 13.9503 6.39998C14.1094 6.51941 14.2146 6.69716 14.2427 6.89414C14.2708 7.09111 14.2194 7.29116 14.1 7.45029Z" fill="#2684FF"/>
<path d="M9 10.9998C9.17163 11.002 9.34223 11.0266 9.5075 11.073L12.9 6.54953C13.0194 6.3904 13.1972 6.28523 13.3941 6.25716C13.5911 6.22908 13.7912 6.28041 13.9503 6.39984C14.1094 6.51927 14.2146 6.69702 14.2427 6.89399C14.2707 7.09096 14.2194 7.29102 14.1 7.45015L10.7078 11.973C10.8963 12.2768 10.9974 12.6268 10.9999 12.9843C11.0025 13.3419 10.9065 13.6932 10.7225 13.9998H7.2775C7.09769 13.6971 7.0019 13.3519 7 12.9998C7 12.4694 7.21071 11.9607 7.58579 11.5856C7.96086 11.2105 8.46957 10.9998 9 10.9998Z" fill="#2684FF"/>
</svg>
