<svg width="16" height="14" viewBox="0 0 16 14" fill="none" xmlns="http://www.w3.org/2000/svg">
<path d="M7.20003 8.59988C7.20003 6.96363 8.18978 5.55787 9.60004 4.93887V4.59987H6.20003C6.04104 4.59941 5.88869 4.53605 5.77627 4.42362C5.66385 4.3112 5.60048 4.15886 5.60002 3.99987V0.599855H0.600004C0.521155 0.599658 0.443044 0.615042 0.370159 0.645125C0.297274 0.675208 0.231052 0.719396 0.175297 0.775151C0.119542 0.830906 0.0753542 0.897128 0.0452713 0.970013C0.0151885 1.0429 -0.000195981 1.12101 1.8846e-06 1.19986V12.7999C-0.000195981 12.8787 0.0151885 12.9569 0.0452713 13.0297C0.0753542 13.1026 0.119542 13.1689 0.175297 13.2246C0.231052 13.2804 0.297274 13.3245 0.370159 13.3546C0.443044 13.3847 0.521155 13.4001 0.600004 13.3999H9.00004C9.07888 13.4001 9.15699 13.3847 9.22988 13.3546C9.30276 13.3245 9.36899 13.2804 9.42474 13.2246C9.4805 13.1689 9.52469 13.1026 9.55477 13.0297C9.58485 12.9569 9.60023 12.8787 9.60004 12.7999V12.2609C8.18978 11.6421 7.20003 10.2361 7.20003 8.59988ZM9.60004 3.64737C9.59998 3.48891 9.53704 3.33695 9.42504 3.22486L6.97753 0.774856C6.92166 0.719186 6.85537 0.675075 6.78245 0.645047C6.70952 0.615019 6.63139 0.599662 6.55253 0.599855H6.40003V3.79987H9.60004V3.64737ZM15.8828 12.1514L13.9476 10.2161C14.241 9.72788 14.3973 9.16953 14.4001 8.59988C14.4001 7.96698 14.2124 7.34829 13.8608 6.82205C13.5091 6.29581 13.0094 5.88566 12.4246 5.64346C11.8399 5.40126 11.1965 5.33789 10.5758 5.46136C9.95501 5.58483 9.38482 5.88961 8.93729 6.33713C8.48976 6.78466 8.18499 7.35485 8.06152 7.97559C7.93805 8.59633 8.00142 9.23975 8.24362 9.82448C8.48582 10.4092 8.89597 10.909 9.42221 11.2606C9.94845 11.6122 10.5671 11.7999 11.2 11.7999C11.7925 11.7999 12.3403 11.6279 12.8163 11.3471L14.7516 13.2827C14.7887 13.3198 14.8328 13.3493 14.8813 13.3694C14.9299 13.3895 14.9819 13.3998 15.0344 13.3998C15.087 13.3998 15.139 13.3895 15.1875 13.3694C15.2361 13.3493 15.2802 13.3198 15.3173 13.2827L15.8828 12.7171C15.92 12.68 15.9494 12.6359 15.9695 12.5874C15.9897 12.5388 16 12.4868 16 12.4343C16 12.3817 15.9897 12.3297 15.9695 12.2812C15.9494 12.2326 15.92 12.1885 15.8828 12.1514ZM11.2 10.1999C10.8836 10.1999 10.5742 10.1061 10.3111 9.93024C10.048 9.75443 9.84293 9.50454 9.72183 9.21218C9.60073 8.91982 9.56904 8.59811 9.63078 8.28774C9.69252 7.97737 9.8449 7.69227 10.0687 7.46851C10.2924 7.24474 10.5775 7.09236 10.8879 7.03062C11.1983 6.96889 11.52 7.00057 11.8123 7.12167C12.1047 7.24277 12.3546 7.44785 12.5304 7.71097C12.7062 7.97409 12.8 8.28343 12.8 8.59988C12.8 9.02423 12.6315 9.4312 12.3314 9.73126C12.0314 10.0313 11.6244 10.1999 11.2 10.1999Z" fill="#2684FF"/>
</svg>
