<svg width="25" height="24" viewBox="0 0 25 24" fill="none" xmlns="http://www.w3.org/2000/svg">
<g clip-path="url(#clip0_3146_32836)">
<path opacity="0.4" d="M24.5 10V6C24.5 5.46957 24.2893 4.96086 23.9142 4.58579C23.5391 4.21071 23.0304 4 22.5 4H2.5C1.96957 4 1.46086 4.21071 1.08579 4.58579C0.710714 4.96086 0.5 5.46957 0.5 6L0.5 10C1.03043 10 1.53914 10.2107 1.91421 10.5858C2.28929 10.9609 2.5 11.4696 2.5 12C2.5 12.5304 2.28929 13.0391 1.91421 13.4142C1.53914 13.7893 1.03043 14 0.5 14L0.5 18C0.5 18.5304 0.710714 19.0391 1.08579 19.4142C1.46086 19.7893 1.96957 20 2.5 20H22.5C23.0304 20 23.5391 19.7893 23.9142 19.4142C24.2893 19.0391 24.5 18.5304 24.5 18V14C23.9696 14 23.4609 13.7893 23.0858 13.4142C22.7107 13.0391 22.5 12.5304 22.5 12C22.5 11.4696 22.7107 10.9609 23.0858 10.5858C23.4609 10.2107 23.9696 10 24.5 10ZM20.5 17.3333H4.5V6.66667H20.5V17.3333Z" fill="#F34A23"/>
<path d="M20.5 6.6665V17.3332H4.5V6.6665H20.5Z" fill="#F34A23"/>
</g>
<defs>
<clipPath id="clip0_3146_32836">
<rect width="24" height="24" fill="white" transform="translate(0.5)"/>
</clipPath>
</defs>
</svg>
