<svg width="18" height="18" viewBox="0 0 18 18" fill="none" xmlns="http://www.w3.org/2000/svg">
<path opacity="0.4" d="M17.1 2.69995H0.9C0.661305 2.69995 0.432387 2.79477 0.263604 2.96356C0.0948212 3.13234 0 3.36126 0 3.59995L0 14.4C0 14.6386 0.0948212 14.8676 0.263604 15.0363C0.432387 15.2051 0.661305 15.3 0.9 15.3H17.1C17.3387 15.3 17.5676 15.2051 17.7364 15.0363C17.9052 14.8676 18 14.6386 18 14.4V3.59995C18 3.36126 17.9052 3.13234 17.7364 2.96356C17.5676 2.79477 17.3387 2.69995 17.1 2.69995ZM4.95 11.0216V11.475C4.95 11.5346 4.92629 11.5919 4.8841 11.634C4.8419 11.6762 4.78467 11.7 4.725 11.7H4.275C4.21533 11.7 4.1581 11.6762 4.1159 11.634C4.07371 11.5919 4.05 11.5346 4.05 11.475V11.0168C3.73074 11.0003 3.42361 10.8892 3.16772 10.6976C3.14209 10.6776 3.12108 10.6524 3.10613 10.6235C3.09118 10.5947 3.08265 10.563 3.08113 10.5305C3.07961 10.4981 3.08513 10.4657 3.09731 10.4356C3.10948 10.4055 3.12804 10.3784 3.15169 10.3561L3.48216 10.0406C3.52046 10.0057 3.56938 9.98469 3.62105 9.98097C3.67273 9.97724 3.72415 9.99101 3.76706 10.02C3.87496 10.0883 3.99995 10.1247 4.12762 10.125H4.91822C5.10103 10.125 5.25009 9.95845 5.25009 9.75398C5.25009 9.58664 5.14856 9.43926 5.00344 9.39595L3.73781 9.01626C3.21497 8.85933 2.84962 8.35758 2.84962 7.79592C2.84962 7.10629 3.38541 6.54604 4.04972 6.52833V6.07495C4.04972 6.01528 4.07342 5.95805 4.11562 5.91585C4.15782 5.87366 4.21505 5.84995 4.27472 5.84995H4.72472C4.78439 5.84995 4.84162 5.87366 4.88382 5.91585C4.92601 5.95805 4.94972 6.01528 4.94972 6.07495V6.53311C5.269 6.54945 5.57617 6.66059 5.832 6.85233C5.85763 6.87227 5.87864 6.89752 5.89359 6.92636C5.90854 6.95519 5.91706 6.98691 5.91859 7.01936C5.92011 7.0518 5.91459 7.08418 5.90241 7.11429C5.89023 7.14439 5.87168 7.17151 5.84803 7.19376L5.51756 7.50933C5.47926 7.54421 5.43034 7.56521 5.37866 7.56893C5.32699 7.57266 5.27556 7.55889 5.23266 7.52986C5.12481 7.46149 4.99978 7.42511 4.87209 7.42495H4.0815C3.89869 7.42495 3.74963 7.59145 3.74963 7.79592C3.74963 7.96326 3.85116 8.11064 3.99628 8.15395L5.26191 8.53364C5.78475 8.69058 6.15009 9.19233 6.15009 9.75398C6.15009 10.4439 5.61431 11.0039 4.95 11.0216ZM11.7 10.575C11.7 10.6346 11.6763 10.6919 11.6341 10.734C11.5919 10.7762 11.5347 10.8 11.475 10.8H8.325C8.26533 10.8 8.2081 10.7762 8.1659 10.734C8.1237 10.6919 8.1 10.6346 8.1 10.575V10.125C8.1 10.0653 8.1237 10.008 8.1659 9.96585C8.2081 9.92366 8.26533 9.89995 8.325 9.89995H11.475C11.5347 9.89995 11.5919 9.92366 11.6341 9.96585C11.6763 10.008 11.7 10.0653 11.7 10.125V10.575ZM16.2 10.575C16.2 10.6346 16.1763 10.6919 16.1341 10.734C16.0919 10.7762 16.0347 10.8 15.975 10.8H13.725C13.6653 10.8 13.6081 10.7762 13.5659 10.734C13.5237 10.6919 13.5 10.6346 13.5 10.575V10.125C13.5 10.0653 13.5237 10.008 13.5659 9.96585C13.6081 9.92366 13.6653 9.89995 13.725 9.89995H15.975C16.0347 9.89995 16.0919 9.92366 16.1341 9.96585C16.1763 10.008 16.2 10.0653 16.2 10.125V10.575ZM16.2 7.87495C16.2 7.93462 16.1763 7.99185 16.1341 8.03405C16.0919 8.07625 16.0347 8.09995 15.975 8.09995H8.325C8.26533 8.09995 8.2081 8.07625 8.1659 8.03405C8.1237 7.99185 8.1 7.93462 8.1 7.87495V7.42495C8.1 7.36528 8.1237 7.30805 8.1659 7.26585C8.2081 7.22366 8.26533 7.19995 8.325 7.19995H15.975C16.0347 7.19995 16.0919 7.22366 16.1341 7.26585C16.1763 7.30805 16.2 7.36528 16.2 7.42495V7.87495Z" fill="#2684FF"/>
<path d="M4.04983 6.52835V6.07498C4.04983 6.0153 4.07354 5.95807 4.11573 5.91588C4.15793 5.87368 4.21516 5.84998 4.27483 5.84998H4.72483C4.7845 5.84998 4.84173 5.87368 4.88393 5.91588C4.92612 5.95807 4.94983 6.0153 4.94983 6.07498V6.53313C5.26911 6.54947 5.57628 6.66061 5.83211 6.85235C5.85774 6.87229 5.87875 6.89755 5.8937 6.92638C5.90865 6.95521 5.91717 6.98694 5.9187 7.01938C5.92022 7.05182 5.9147 7.08421 5.90252 7.11431C5.89034 7.14442 5.87179 7.17153 5.84814 7.19379L5.51739 7.50935C5.47909 7.54424 5.43017 7.56523 5.37849 7.56896C5.32682 7.57268 5.27539 7.55892 5.23248 7.52988C5.12464 7.46151 4.99961 7.42514 4.87192 7.42498H4.08133C3.89852 7.42498 3.74946 7.59148 3.74946 7.79594C3.74946 7.96329 3.85099 8.11066 3.99611 8.15398L5.26173 8.53366C5.78458 8.6906 6.14992 9.19235 6.14992 9.75401C6.14992 10.4439 5.61555 11.0039 4.94983 11.0216V11.475C4.94983 11.5346 4.92612 11.5919 4.88393 11.6341C4.84173 11.6763 4.7845 11.7 4.72483 11.7H4.27483C4.21516 11.7 4.15793 11.6763 4.11573 11.6341C4.07354 11.5919 4.04983 11.5346 4.04983 11.475V11.0168C3.73057 11.0003 3.42344 10.8892 3.16755 10.6976C3.14192 10.6777 3.12091 10.6524 3.10596 10.6236C3.09101 10.5947 3.08249 10.563 3.08096 10.5306C3.07944 10.4981 3.08496 10.4657 3.09714 10.4356C3.10932 10.4055 3.12787 10.3784 3.15152 10.3562L3.48199 10.0406C3.52029 10.0057 3.56921 9.98472 3.62088 9.98099C3.67256 9.97727 3.72399 9.99103 3.76689 10.0201C3.87479 10.0883 3.99978 10.1247 4.12745 10.125H4.91805C5.10086 10.125 5.24992 9.95848 5.24992 9.75401C5.24992 9.58666 5.14839 9.43929 5.00327 9.39598L3.73764 9.01629C3.2148 8.85935 2.84946 8.3576 2.84946 7.79594C2.84946 7.10632 3.38524 6.54607 4.04983 6.52835Z" fill="#2684FF"/>
</svg>
