<svg width="64" height="64" viewBox="0 0 64 64" fill="none" xmlns="http://www.w3.org/2000/svg">
<path d="M56 47.9984H8V41.9984L16.9387 33.0584C17.0781 32.9185 17.2437 32.8076 17.426 32.7319C17.6083 32.6562 17.8038 32.6172 18.0012 32.6172C18.1987 32.6172 18.3941 32.6562 18.5765 32.7319C18.7588 32.8076 18.9244 32.9185 19.0637 33.0584L26 39.9984L42.9388 23.0584C43.0781 22.9185 43.2437 22.8076 43.426 22.7319C43.6083 22.6562 43.8038 22.6172 44.0013 22.6172C44.1987 22.6172 44.3941 22.6562 44.5765 22.7319C44.7588 22.8076 44.9244 22.9185 45.0638 23.0584L56 33.9984V47.9984Z" fill="#2684FF"/>
<path opacity="0.4" d="M58 8H6C4.4087 8 2.88258 8.63214 1.75736 9.75736C0.632141 10.8826 0 12.4087 0 14L0 50C0 51.5913 0.632141 53.1174 1.75736 54.2426C2.88258 55.3679 4.4087 56 6 56H58C59.5913 56 61.1174 55.3679 62.2426 54.2426C63.3679 53.1174 64 51.5913 64 50V14C64 12.4087 63.3679 10.8826 62.2426 9.75736C61.1174 8.63214 59.5913 8 58 8ZM14 15C15.3845 15 16.7378 15.4105 17.889 16.1797C19.0401 16.9489 19.9373 18.0421 20.4672 19.3212C20.997 20.6003 21.1356 22.0078 20.8655 23.3656C20.5954 24.7235 19.9287 25.9708 18.9497 26.9497C17.9708 27.9287 16.7235 28.5954 15.3656 28.8655C14.0078 29.1356 12.6003 28.997 11.3212 28.4672C10.0421 27.9373 8.94888 27.0401 8.17971 25.889C7.41054 24.7378 7 23.3845 7 22C7 20.1435 7.7375 18.363 9.05025 17.0503C10.363 15.7375 12.1435 15 14 15ZM56 48H8V42L16.9387 33.06C17.0781 32.9202 17.2437 32.8092 17.426 32.7335C17.6083 32.6578 17.8038 32.6188 18.0012 32.6188C18.1987 32.6188 18.3941 32.6578 18.5765 32.7335C18.7588 32.8092 18.9244 32.9202 19.0637 33.06L26 40L42.9388 23.06C43.0781 22.9202 43.2437 22.8092 43.426 22.7335C43.6083 22.6578 43.8038 22.6188 44.0013 22.6188C44.1987 22.6188 44.3941 22.6578 44.5765 22.7335C44.7588 22.8092 44.9244 22.9202 45.0638 23.06L56 34V48Z" fill="#2684FF"/>
</svg>
