<svg width="102" height="68" viewBox="0 0 102 68" fill="none" xmlns="http://www.w3.org/2000/svg">
<path d="M12.233 36.7681L0 57.7385V8.50007C0 6.24571 0.895541 4.08369 2.48961 2.48961C4.08369 0.895541 6.24571 0 8.50007 0H36.8336L48.1671 11.3334H76.5006C78.755 11.3334 80.917 12.229 82.5111 13.823C84.1052 15.4171 85.0007 17.5791 85.0007 19.8335V28.3336H26.9169C23.9468 28.3392 21.0297 29.1203 18.4542 30.5997C15.8787 32.079 13.7343 34.2053 12.233 36.7681Z" fill="#2684FF"/>
<path d="M26.9164 34.0002H97.7504C98.4979 34.0003 99.2323 34.1976 99.8792 34.5721C100.526 34.9466 101.063 35.4852 101.435 36.1334C101.808 36.7817 102.002 37.5166 102 38.2642C101.998 39.0118 101.798 39.7455 101.421 40.3912L88.5898 62.3781C87.5918 64.0887 86.163 65.508 84.4458 66.4944C82.7285 67.4809 80.7827 68.0002 78.8023 68.0005H7.96836C7.2208 68.0005 6.48648 67.8032 5.83951 67.4287C5.19253 67.0541 4.65579 66.5156 4.28344 65.8673C3.9111 65.2191 3.71632 64.4841 3.71877 63.7366C3.72122 62.989 3.92081 62.2553 4.29739 61.6095L17.1272 39.6227C18.1253 37.9118 19.5544 36.4924 21.272 35.5059C22.9896 34.5194 24.9357 34.0003 26.9164 34.0002Z" fill="#64A7FF"/>
</svg>
