<svg width="16" height="16" viewBox="0 0 16 16" fill="none" xmlns="http://www.w3.org/2000/svg">
<path d="M9.25 11.9989H6.75C6.33437 11.9989 6 11.6645 6 11.2489V5.99888H3.25938C2.70312 5.99888 2.425 5.327 2.81875 4.93325L7.57188 0.177002C7.80625 -0.057373 8.19063 -0.057373 8.425 0.177002L13.1812 4.93325C13.575 5.327 13.2969 5.99888 12.7406 5.99888H10V11.2489C10 11.6645 9.66562 11.9989 9.25 11.9989ZM16 11.7489V15.2489C16 15.6645 15.6656 15.9989 15.25 15.9989H0.75C0.334375 15.9989 0 15.6645 0 15.2489V11.7489C0 11.3333 0.334375 10.9989 0.75 10.9989H5V11.2489C5 12.2145 5.78438 12.9989 6.75 12.9989H9.25C10.2156 12.9989 11 12.2145 11 11.2489V10.9989H15.25C15.6656 10.9989 16 11.3333 16 11.7489ZM12.125 14.4989C12.125 14.1551 11.8438 13.8739 11.5 13.8739C11.1562 13.8739 10.875 14.1551 10.875 14.4989C10.875 14.8426 11.1562 15.1239 11.5 15.1239C11.8438 15.1239 12.125 14.8426 12.125 14.4989ZM14.125 14.4989C14.125 14.1551 13.8438 13.8739 13.5 13.8739C13.1562 13.8739 12.875 14.1551 12.875 14.4989C12.875 14.8426 13.1562 15.1239 13.5 15.1239C13.8438 15.1239 14.125 14.8426 14.125 14.4989Z" fill="#F34A23"/>
</svg>
