<svg width="16" height="16" viewBox="0 0 16 16" fill="none" xmlns="http://www.w3.org/2000/svg">
<path d="M9.25 11.9986H6.75C6.33437 11.9986 6 11.6643 6 11.2486V5.99863H3.25938C2.70312 5.99863 2.425 5.32676 2.81875 4.93301L7.57188 0.176758C7.80625 -0.0576172 8.19063 -0.0576172 8.425 0.176758L13.1812 4.93301C13.575 5.32676 13.2969 5.99863 12.7406 5.99863H10V11.2486C10 11.6643 9.66562 11.9986 9.25 11.9986ZM16 11.7486V15.2486C16 15.6643 15.6656 15.9986 15.25 15.9986H0.75C0.334375 15.9986 0 15.6643 0 15.2486V11.7486C0 11.333 0.334375 10.9986 0.75 10.9986H5V11.2486C5 12.2143 5.78438 12.9986 6.75 12.9986H9.25C10.2156 12.9986 11 12.2143 11 11.2486V10.9986H15.25C15.6656 10.9986 16 11.333 16 11.7486ZM12.125 14.4986C12.125 14.1549 11.8438 13.8736 11.5 13.8736C11.1562 13.8736 10.875 14.1549 10.875 14.4986C10.875 14.8424 11.1562 15.1236 11.5 15.1236C11.8438 15.1236 12.125 14.8424 12.125 14.4986ZM14.125 14.4986C14.125 14.1549 13.8438 13.8736 13.5 13.8736C13.1562 13.8736 12.875 14.1549 12.875 14.4986C12.875 14.8424 13.1562 15.1236 13.5 15.1236C13.8438 15.1236 14.125 14.8424 14.125 14.4986Z" fill="#F34A23"/>
</svg>
