<svg width="18" height="18" viewBox="0 0 18 18" fill="none" xmlns="http://www.w3.org/2000/svg">
<path opacity="0.4" d="M6.81274 8.00465L0.659263 14.1581C0.247552 14.5821 0.0191789 15.151 0.0234977 15.7419C0.0278164 16.3328 0.26448 16.8983 0.682343 17.3162C1.10021 17.7341 1.66571 17.9707 2.25664 17.975C2.84757 17.9794 3.41648 17.751 3.8404 17.3393L9.07364 12.106C8.98016 11.5587 9.06107 10.9957 9.30493 10.4968L6.81274 8.00465ZM2.25018 16.592C2.08333 16.592 1.92023 16.5425 1.7815 16.4498C1.64276 16.3571 1.53463 16.2253 1.47078 16.0712C1.40693 15.917 1.39023 15.7474 1.42278 15.5838C1.45533 15.4201 1.53567 15.2698 1.65366 15.1518C1.77164 15.0338 1.92196 14.9535 2.0856 14.9209C2.24925 14.8884 2.41887 14.9051 2.57302 14.9689C2.72717 15.0328 2.85893 15.1409 2.95163 15.2797C3.04432 15.4184 3.0938 15.5815 3.0938 15.7483C3.0938 15.9721 3.00492 16.1867 2.84671 16.3449C2.6885 16.5031 2.47392 16.592 2.25018 16.592ZM17.8476 3.83578C17.8292 3.76359 17.792 3.69758 17.7397 3.64444C17.6875 3.59131 17.6222 3.55295 17.5503 3.53327C17.4785 3.51359 17.4027 3.5133 17.3307 3.53241C17.2587 3.55153 17.193 3.58937 17.1404 3.6421L14.5266 6.25766L12.1405 5.86011L11.743 3.47232L14.3568 0.858516C14.4099 0.80556 14.4479 0.739414 14.4669 0.666889C14.4859 0.594364 14.4852 0.518081 14.465 0.445895C14.4447 0.373709 14.4056 0.30823 14.3516 0.2562C14.2976 0.20417 14.2307 0.16747 14.1578 0.149878C13.3106 -0.0610772 12.4232 -0.0491576 11.5819 0.184477C10.7406 0.418112 9.97409 0.865507 9.35695 1.48314C7.96358 2.87652 7.58008 4.89628 8.16007 6.65733L8.00435 6.81304L10.4965 9.30523C10.9852 9.06273 11.5376 8.97945 12.076 9.06709C12.6144 9.15473 13.1119 9.40888 13.4984 9.79382L13.7518 10.0473C14.799 9.88438 15.7669 9.39185 16.515 8.64123C17.1333 8.02353 17.5809 7.25623 17.8145 6.41408C18.048 5.57193 18.0594 4.68365 17.8476 3.83578Z" fill="#2684FF"/>
<path d="M17.615 13.9102C17.8598 14.1563 17.9973 14.4893 17.9973 14.8364C17.9973 15.1836 17.8598 15.5166 17.615 15.7627L15.7625 17.6151C15.518 17.8608 15.1859 17.9992 14.8393 18C14.4927 18.0008 14.16 17.8639 13.9143 17.6193L13.9101 17.6151L9.79396 13.499C8.98198 12.687 8.82732 11.4743 9.30537 10.4971L5.5583 6.75003H3.37544L0.000976562 2.25074L2.25062 0.00109863L6.74991 3.37557V5.55842L10.497 9.30549C10.9856 9.06299 11.538 8.97971 12.0764 9.06735C12.6149 9.15499 13.1123 9.40914 13.4988 9.79408L17.615 13.9102Z" fill="#2684FF"/>
</svg>
